<mxfile host="app.diagrams.net" modified="2022-07-14T02:10:04.375Z" agent="5.0 (Macintosh; Intel Mac OS X 10_15_7) AppleWebKit/537.36 (KHTML, like Gecko) Chrome/103.0.5060.114 Safari/537.36 Edg/103.0.1264.51" etag="lblOrXpBybtW4bdO-Dse" version="16.6.5" type="github">
  <diagram id="WZEk7SZ42n8y_icdpoJP" name="Page-1">
    <mxGraphModel dx="1186" dy="712" grid="1" gridSize="10" guides="1" tooltips="1" connect="1" arrows="1" fold="1" page="1" pageScale="1" pageWidth="827" pageHeight="1169" math="0" shadow="0">
      <root>
        <mxCell id="0" />
        <mxCell id="1" parent="0" />
        <mxCell id="04ijFvJ8HovLDQiNbfhL-6" value="Event Capture Process(One flow per Bucket)" style="rounded=0;whiteSpace=wrap;html=1;verticalAlign=top;shadow=0;glass=0;" parent="1" vertex="1">
          <mxGeometry x="40" y="80" width="720" height="200" as="geometry" />
        </mxCell>
        <mxCell id="04ijFvJ8HovLDQiNbfhL-3" value="Event Notification&amp;nbsp;" style="edgeStyle=orthogonalEdgeStyle;rounded=0;orthogonalLoop=1;jettySize=auto;html=1;exitX=1;exitY=0.5;exitDx=0;exitDy=0;exitPerimeter=0;" parent="1" source="04ijFvJ8HovLDQiNbfhL-1" target="04ijFvJ8HovLDQiNbfhL-2" edge="1">
          <mxGeometry relative="1" as="geometry" />
        </mxCell>
        <mxCell id="04ijFvJ8HovLDQiNbfhL-1" value="S3 Bucket where objects get placed" style="outlineConnect=0;dashed=0;verticalLabelPosition=bottom;verticalAlign=top;align=center;html=1;shape=mxgraph.aws3.s3;fillColor=#E05243;gradientColor=none;" parent="1" vertex="1">
          <mxGeometry x="110" y="120" width="80" height="93" as="geometry" />
        </mxCell>
        <mxCell id="04ijFvJ8HovLDQiNbfhL-5" value="Preserve Events" style="edgeStyle=orthogonalEdgeStyle;rounded=0;orthogonalLoop=1;jettySize=auto;html=1;exitX=1;exitY=0.5;exitDx=0;exitDy=0;exitPerimeter=0;" parent="1" source="04ijFvJ8HovLDQiNbfhL-2" target="04ijFvJ8HovLDQiNbfhL-4" edge="1">
          <mxGeometry relative="1" as="geometry" />
        </mxCell>
        <mxCell id="04ijFvJ8HovLDQiNbfhL-2" value="SNS" style="outlineConnect=0;dashed=0;verticalLabelPosition=bottom;verticalAlign=top;align=center;html=1;shape=mxgraph.aws3.sns;fillColor=#D9A741;gradientColor=none;" parent="1" vertex="1">
          <mxGeometry x="370" y="128.25" width="76.5" height="76.5" as="geometry" />
        </mxCell>
        <mxCell id="04ijFvJ8HovLDQiNbfhL-4" value="SQS Queue" style="outlineConnect=0;dashed=0;verticalLabelPosition=bottom;verticalAlign=top;align=center;html=1;shape=mxgraph.aws3.sqs;fillColor=#D9A741;gradientColor=none;" parent="1" vertex="1">
          <mxGeometry x="600" y="120" width="76.5" height="93" as="geometry" />
        </mxCell>
        <mxCell id="04ijFvJ8HovLDQiNbfhL-7" value="Event Processing and orchestration of workflows(One flow per Sync Type)" style="rounded=0;whiteSpace=wrap;html=1;verticalAlign=top;" parent="1" vertex="1">
          <mxGeometry y="390" width="800" height="610" as="geometry" />
        </mxCell>
        <mxCell id="04ijFvJ8HovLDQiNbfhL-9" value="" style="outlineConnect=0;dashed=0;verticalLabelPosition=bottom;verticalAlign=top;align=center;html=1;shape=mxgraph.aws3.cloud_2;fillColor=#F58534;gradientColor=none;rounded=0;shadow=0;glass=0;fontColor=#000000;" parent="1" vertex="1">
          <mxGeometry x="716" y="240" width="44" height="40" as="geometry" />
        </mxCell>
        <mxCell id="04ijFvJ8HovLDQiNbfhL-15" value="" style="shape=image;imageAspect=0;aspect=fixed;verticalLabelPosition=bottom;verticalAlign=top;rounded=0;shadow=0;glass=0;fontColor=#000000;fillColor=#FFB570;image=data:image/png,iVBORw0KGgoAAAANSUhEUgAAALgAAAESCAMAAAB5He/JAAABVlBMVEX////+cz4AAADi9fzN7Pb+/v7+azy10vP+YUKy0PPk9/wHCQn+bzf9/Pv+p3f+cTv3+v7+aCn+bDD+bTPL8Pv+m3z+aEvS7vfHx8e61fTf8vv+ZEb+ZybG3vb+Wznv7++AgIDY2Nj/1sn/7OaysrLm5uZoaGiXl5fU6fnt9Pz+d0T+VzT+r5UyMjLBwcF4eHiOjo7/4dj+pIehoaHP5fhdXV3g+/+0tLRSUlLExMQ8PDzS0tIaGhpgYGBISEgpKSn+c07+dlD+yMD+opT+jXr+mIf+h1z+yLYiIiL2jWz+jV/+oHHS4+r+1M7/UyrhxMP+sKT+f2j+u6f+u6T+fU3stabyoojmvLHfzMjsqpv+lmnyln7uoI7+cEf+elz+r6P+kX/5gW3ibUA2RkqPdW0KFxlcJg+HTDbDYj41JR+0YkRQLyN8TDtmOyugWD7GxtvQvsn+XQrE+1qbAAAY30lEQVR4nO2d+VfbWLKAhWljY6x4xWDjBWMMXtghCQmEsIQtDTQBZ+l0Q8jM9Ot53e/NvPn/f3l3kXTrbpKwjcWcoc7MaWNfSZ9KVXWrSleKYTzJkzzJf44kk83GxkaJykaj0UyGg0byknCyuVHKj9oScT7kSwg/aDqdJBslh1TgjpCP+Y1m0IyyNDfyjnKxeRRsaTSQ0eQxOf7/I2NvbhCNRhBxIebIMBLnjwLij5CLkG88EpsJN4iuS5R5WCf4xwa+LIi99AjUntyg1G7MEL6A2LHaC8FiN/PE54b9UDvwhRJWe5DoBLtUuAe1hT5M1J4PyGAwduReyobsDYxeCsBNkyWs7eFuqG10HIk2Bs3doEbSLTZBH96IDNpesJXkG10ZCYeO3DQySKUTdfeMTdAbWOkDsvQkVndvVgLIC9hJG4PgbirUHUsmk12jb+Dw8vDcDawgQd2xMBKevDDhSMFT6YMwF+RNEclMCHiYfltAyD9I4opPzeVho0tJad4UvIn1LDMDem3Uj5Ue1tDDeWzeiuMS8GE3aA92YugPRq7jHh7G3K7KBujqeBRrPFxEV3HHsGnHhidiMX/YRJToD0iu4E4a4bAR86lrD/QHIy9J3NS0w/fG/kFtMIS8/3aO4wl/MKxurPBuwLGbqsn7XV6gffLclrq75UYiBxgSW/obz5vivNM7t0rpOJ5H+jmHJtGkzHNTM0lq/TJryz3J82j27yM4MvANyE3NWzflZLMT1c8fP/1yevrp4+cz/LcWXU4E8v0MLQ0hoBBuI6mhPvs8ni6m0/F4fKg1MpJJ7f3y05mWXYwusUIfzTwpOKYLdzb702kxHR+ypHMzMoLZi0cfdewTIjly0EifmrvIUKBiKHdTif25lXKoGTmSVPGXqhpdIi/1Kz1v8gZOuVXRJPulk0oM8dKyyUdGiqdVX+TDkf4YSzjCzTwxHXf2bLwoYmOdjzAp/jKhQhfI8TzUj8iywRlKTBe9s18ycRl7aCgBydMjX5TksrH0PvUnuYii5/5ZpW5J5yPFj946J5GlZ/9EcxkMKJp4kh1PabA5M8fkv6rIRZX33uJKcp6ZJFWx4sCnaS23oHJk6N7k2D97nPlL0DNpgiJP81mbO4FmHYXFcCofSX1SkPNmjoJ5jypHCge9CGLgBZn7F1vf7589e/ZVYSwjvM5/9iTHKu/Jyjegwptqx8x+tO37x2dEZJ3fCOQ/Kci5tAWrvKfAIilcrneyX4qWnbyn3M++SuSCykfSZzK5EM0jkUgP3Ggq4D1TYShnQxZn3OJ+9qMU0EXwkVNPlaPA0sP0mQchhUyZckTJfsoMCeDP5JlIsJWR4mcFOafxwmgPGQvKUpgaiMKliJKtFm24+I9ajQsREYuqT8ervAf33ACTZsxQe+apQ+nY+HvZOyVbSakiCwfe6ME9YV+WKFzm/lIEeFqFy+AjmTMvlXef3SJL8VT4OEf59cdnP75X5lp791d597YCLUVt4T+c8VN9IoH/pxRJ5TcyNxdYerCVPLAUdZKS/eyWo7jbSlGR4XKxPNZtXEHTPduJoZ7sj3S5rChyWMmoki3RVroCb4DpPqluEp75VbgCfGREYSvQPbGtdDUHlYCJq8vj7E+9gKdUJShUeaHLEg4EQ2IpinT214w3sh7ca/aMoRSxdL/AspHPl/IRZuIaS/Fv4irwjKoW4mylhBdDle4RWnBPBi8AgyaubEi0fIPLUWVk5MgLHHNE7tGSC0eo8CYux5R7+KbSOW88ajjcpyDiFzxJxzPfJCauOEhVXyH70fiIV/FZsED8lp82uOObTY2JO+Ctjhc40DNLcVVNam7y7BUc+6aql4LAWze7N7e5aDSay910WnpwQnuzm9tFQ6fQfwi+Cpwz8nx34M7JY99U9MKz1cTuVBRIbleLfkOwwdip3b09BbcUVroB9/DN7Nm7qChTuzpT2ePPkYgqkHPeaYWVe4JHOHC59vkSLeOjl8vtCyTtsqV1lbknOrdU22gwFmvsxYH7FGSFlfuCO5lKTOWb2c9tfOx29N3leQ3J/rcPlGdqTwZvUex2+8Pl/vnq+f632zLd+k4mL/QR3JDBsx8v8IFz+ybbrnZQLhNyaVraJZS5yxobe5nD6O3vEnnv4FwYF3Lx7GfC/Q2NDjuCcO7aKvJbYiRXYTAYffxGyN+J5MA7Y4V+g2e/YO7oKsSmOPuEnAsuiT3MvVsTBhvGKrkOYsYCw0qv4FKmckZMoiZgE5xzfEo5QJ7oYO5bUx5s1IiHCv04DryrcKgHzx4i8LaKG43cx+TAQYlj5hTcmBxfnzJf73PlW5/Bq4jtYh9aN6Q5KHMqx47JnST8iK9PmTeW/oJzNo4VXv4OHQ2HFvYXnml2ocLbl9rB3/G141TONVf6C44t/MLRoWGsb4dCy3UGgx3UUTn2zBzgnj0JheaqzsY1pPI212KBGu/OxvOaqJL9CYExhRtzodDYWChUZd9EgZVjhTOrMqbp4EmHHKv8Vgve25QvTEBZZMSMxZhFJEhCi4zuW9mxlRaymwvHM41Ja/C2/RW5PJytAPAuJ6BRHfgH6G3GJmUZC205X50zW0GWUuaujjV4yQY3MTiMiHAC6hU8zIFPYOdzIMOLNsss+w4Z7hTV+A0CZ65p7NiD553ByJbKH/sL7mQNYS47PGtHy+8ULK/Yd3h+6tgab58rNM7O8g6FKJglwlylu7SWVUBhrpDA4IeMZcVmYXOM8cHxzl0efNYeXHHAkceUDzXgXRYSsHQDM5AAXhkjMKF1EPPeOeCCxo23dPAK+wqDw+x2uHfwDVhzsniIwjgwlbBR3wkhAdxU4x3bxgE4Os1NPHgefCNqHIJ3V3OyGYiv8idy3JSC1FivVrnUz8ApSMsxFS45MCrVKjfr42kYTPpczdldlc/PQMw7syi9bvOgBv+niaJKzkkNywdcgiUOxjPUZyV4rMu+ilAtO95JJqBVZWposZA535o5Uey8dRuL4/gF6PHLBdA91iNELPCC0sjxlC9oUYC5YzMnnvIv1AkwO8kyqMRl37xHr7lhPf/KeSfrwZ3hY4nFD1TihWPixMjBDCQP/oBdXWPiefrg7T2W2zYLzWQzLzQPma3clXmPE1hIQm6ntaT+UZYRZOzqBT/jC4XbaKN5/0edm6NcZwXYCq44y2ENDMlUQQmUk9xTUHg0xwxF6Kp0ubZ5lDdyEFe+40lDDWOEcU3vKJwm5BcaXzau2nxM+QGutyuNdrmAosSMnL8/m622+bIGoBjvkA6nOqBBQZpBSv8khlL+oM6w8O3CLlcJNcFtN3IgZ/+kHXRxKTuoEX6HJ59b2FjBKXk5pyAn6W+0XdVMm93edENUYPEEWR3EEq3sIQ6/h4KdG0btFieGQtN2j3QNz6W+ymVb7E5M9MVSOFsRlwdlv+OYmDs3YJVsXpLuYU5sNt+Q/slhDY41Vj8Qbm4d4jCUHtaTFYRbtLDXnCU2AZuHtYMo6WTeyk1yQl5uH67aY83z7xdliZtzzY0elgiFR13u5me/kTZc+2L37uDy8uAud0GbxwpuRD5F0cvvDi6vvh1+oF3pcpvvYnG3UfK9LLAtiesnYHufVPu06Y2Fft7tqO8gWo1mPLZtj21/ONO2gnpaZyOsbRKsHN+SuIU3RzD23pD2zueNMDYaFVesDPMK724FgiVg2qeBhbuhn/0U79zsTuVyuehU7nZ3z+Pe2w1gn7q5Ee/lcwov9LjUE037vMq5WypsBRw2Bndqa9DNze7e7s0NHpyquii81Ovi2rywnowzluzPvhchKEQA5ybNnhbvySoXF2H3Bh7n28uihff6HBNUuWgs/QQXl2P1/HxHEz5pEBMm/o89gCda0F0m+q1weQU5BPe9lswLnF9F1vPqcSL8mv1YEjx32ht4R50V0q54Px5hakD/xMLA/a/Jcgfndo8NpT/Po+bFR1Ad8C/+F6y4gfPcyDP79ICh8OgVI1eBJ9QXQc4EGDh/PXGJ3K9HOhv8w26MXF4ilOjMpOXFtfHEqUSeeG+B87vun6FgyXMPAzFy1dom0/wqfps6NWekCxG3Vu0LDy+V+hDCmSQjopkP68BTqM45zsD4nskcG8aVFPHjdImqwN3o30ORRJryM/ka8PSMYRrmWjFDbSOeTi+gv40jyX7i5HEgxcNi/X3auiE56DCK52fyzJm5NkwzbNSuj1KpVDHx9crEf9cUA3FvWTBA/PhPv5/ML41Kr1WZ+OFMDhbxNSNsYnQDL79BBSn6wzRq8qXJ/JwVH7aO9fWBZVvyCvIJxVLPv/y1QmARfDhMPxiVv8njMj+/kJ6d7atj2oLfmSG9eEFRYbZCr02L3BKj/tt/ScOG0h9fyNz9fLTdERRaRPIXqtL4JLRdN8IOdthYCoV+l4elvgyIm75WgLeWF6eKJzl+x3enKngDEtcq0+jvvyvA6zL3Q736E+ucI3/xSZGQ/50sM5h7OVmv1JfW3+BVB78pCtJ4ZWDclBxGxRfyvILkv/G9zJAt+LPCUhItiD2cfxC/BOT822FefFSlVH+xbh8zUfQtEh3mm7FC/sFflYVjS569YORcmQv+zpOH/lCMAeAP9EYYUTbgG6c0CfmfkDz0P6ohDniMvGtqEO/gw/fkbEOvq8Fb/xsC3MpWUfz9C9tMRgf1Gjv80kDrXYf1ogoKyR+/0TVMod/+ULe4KHhseEBvgqMS3iBKj7mAD7X+8edvoZM//6HrJ8ZPX9hvmRzkW0mbEfqmRj04Qm+1XNbwI3D6DrgBv9eTKD2/4QbuLshUsFMO5lWHnJC3kf6z6zI/8yt+2CiI16gSJ+0ePP1/o4G9uBahdw+e+mckyBc0Kyobn5L5NdC3wK92DZ4YCpJb0XXwLalV790/mJjSTWT/0roLEPwg6vmQm1Z22+eBce+Xc3tdKzyH14IEIuGDci530z34VHQqCDM393ejuVzutgfwqWj5bsDmUtu/m8LYuZzuoTxvmcISbecO92um9xH7AX11d1uOTuUs6Ro8N0XRo+V29MPlAMy9tn+Yw88VkoPKi2p8yy1dRFFul3PvrlYH5Ke186tvh98Pv+1fKVen+JBEC126g8PDg6vzYGIL6x/fbw6Nfw0EF4jdPcxcK9+ropPMQtDg9q2GtHyXx03Sx0GD223PxL8pOL5N6AfYzm1SM0GDr1ng732Bt+x3DgWa1ELw+OmqDe7yIo1Ex07ggwdfoCTxcQdc8e6ShIWbeH9sjSoGlBnqwRNHclWUOHJGzTwa8CtKEl9zwK/lm8jjVlGNRllFajpwcOvaZxYsXca/LqjA7VF2WyAzmIzQB/i1Db6mAjfpd5krk/bsEkOPBvxqxj4DFbiRsEYZFngn8H9bz+JNHzsflOD0FjSaL62wfxQ0tzGT4sHjavCODU4/xE+D5rZ7WQ54a1UJfmSDf41TTwia2+4eplbph4QGnKY06Rlrps0ED26FiVSNRjwd+LgNTn8NPh03TGohRdMdnH6JwK8fDTgNE0WriNOBX9ngNHymr4LmNkwS6HDt6w6etsCpDwdfR1hFJ4rLZoKC15TgxzY4jULpwOsIgwY6hGYQxkTHcMATLQY+w4MHn45btRsOb8Rm4u8dcFbNIXBH0TUShVKBJ4eWqWSurQ9OAMEnY6Yc8JoNbj4WcIvo2LIZFOfsfBxRWk0XCG444wMW+n7d4qptM1d2voi1apXGGDxjm/YRjULBqrx23CJoibhhgSNVWuDITe17WwjcJDU0Br+mE1VxLTD/rF0dpdLUFlL4ypP0CRmDXcyNO6kj/tixwa0cYSieSiwEwL660LKph+LFcfyVjeZUFAiSgZPTIlFwpmg3vzKpzNpAA7p51Sn+q5iiUkwdEU+j1Rkqgu2KYsY+GQJOYk2GzPSrp4mitXWx+K/0wiDNPWyatdoqEftGyFrGMmwLnDQgxp0kllhNYohC4q3J5jUiAwSXpEb/KYn0tV2F0nKYeicGp96ZGDoOPoI7Ys4sHNF/BijeMm1YNIUatndiUzGuaKGRTo/PBF4oG2Zt9Xi8k07R5fmJdAer06pxSMZNQwgtjcctp4ynWmvHq7XVwBoU5szaUadz1LG9NN65Iiy0oLf6yLTWpDP88VHc9ud4q9PpjAeUItYs10JuNjMzs2r7mBXGrVYVTVwSR/QvszYzQ8fS7QLvCgG5pqHbroZpMjgU7zyCPNZFagvWg1eJtK3MNeuL4tHVI4onUMIzCy37IZpEkZlvx07P08XO9aPT++r1UdGKLThsDEHAcft08ByfGn88gbyGojiijmPJpNOp1KmQbNfWhoqpdIaOSBeLKBoGH8lRpBgfX8Myjv+7cDWjtIbazPE1GWKNDb6OeJIneZIneZIneRIs1Zcry5uvX29Or09WfG1gbs1Pby5uTk8q9jW78nw7NLa4s+x3Z5UlvAWSneXZ+j2ot6ZDUHZmPSuVpefO6Nc8W5XfV+i1584q8yfcFifz/s7WePk2JMm027bmPI8Gfnq1I+8rtOK2s8qyYotlH+iTJ4oNQ/j1rjqZFYe+sn+pq7Ddd7ai2WLeA9uc02yIFKk2NvoiWk5WrJ/WtfsKbapVWNVoDcmiq63X9Rsi2VJssbUtj5umP6muuSPbVcXOpGvHicLtnRN23VC16ZJq2Cz+xZSvhNfO5j22eNktt3wwJXeI1GU682YiXkAv7lBoSc1d99wwFOINTX2mxAj0vqLb2UsfW6jsywi72rcli3ALU2HfoecEx8UvNTvzvtxIxlRzgDBRhJ7Pv9x6tT49xn+7ArYQtLo9vf7Smhkrwr525l9Vq1uzorvCnS3yP72eX8JbiFBzMvcWN+CEzW9bvLWy6zvJfb8MLzzvmGDmW+L52Da8gU+zH7b4fcmR7TV3KO4nzvqeO19D0+KjLKcEIWRzRrRpf8tdIiFkcxGAMy/pV/G0OLetKrbY5MfDa7Qi7Is/K3tncMKUzKECL5MYWeCx5DkKki9b34FLtKMfLXHzbmjtzHTjRj+Di/tavzPlBMl+tjwb0gm+DjxKQcFfK/oNMMa3qi3gwfiQCHxDoSMeZlLcQpzRQJRUpyRv2AB65VlSrA7V0DN4Pnbdx5Qbwos5LWwh6gioR5MF1oWdmSzmKi+RAZXBHa7ieSyQMlHH1m8BrrsujWYqJxjAUNUK51QOXXDL+1iT/JCqekdYmFW90ewLnhv+k2WF27otgGqhZbLz2dFtGeZJmYOdiCPZhDqr21md3xnzl2XdFsBW4CTDwKe1W7KQVOW22BQHssiqik9EQJaDxzAz1JdGTB3w5NjV1ZdIbOrFYYXNGJI7MbfVFy2L3M58XCONAbJv9afM1LLEgUtXl4HrPK038OfgW4ah1ziLBB7g/KVRy1tuDNOJ/vBsDNQ4s1i9d7BjvXIH96E/ECOwFvw4545yDItHUvZlC4gqvI1Lx2IXVTebwNj60vAVDsHh4dTpEpUVx8KBwEVJDENZsGABFcWsv8OD/Abmh+DSqVMV7lge4ABDU5fDZHCWP/y05vCgnOCmyB3N96pTI6Yy73IolnmcqG/Ewux71tfhwfV+zv0AUgG1YcL68pUHOMgk5R8NoS6eFQ4vzWdYYELOVxJQoapQzvWYvMBhjaMwlgrXHFgXD6+yVZAHi34zJ+6LE77x4wVuwHavRG7y9TI9GKz/5VgO4cTz4i6f6G9Cj8kTnKuuBY660Iyh4FxVO8d7RoVrM0g+wDVJTqCetrgGgB9wTuWht2ACrYiNEvvyct+PgZnL5BvPsiGJPZzpV/jcKlvrQqcm5B1VpLbU4jxpFNWXFI05C9zkv91eoVu8EnpIUg5t+Ovd+QXX9ue14Jr+qSjKtM21n31PcB/NWgHc17lqclevjvZ9wMOiY+iEmbN3g1c3q4d9kvsBN0yf5MAP33gM1RzJ30ljwVGFzXU6NZjPXXahBPcwVn2NY/jsa+Mki/mSfn9S6FMJN0G53QRyuQWERXuHDwhOPdmMoa2I0Qwgh1IqwIz41KOuu0xvvO90LqmOtr1uOkZL0yB7lLLXx1Soumnxpi6UU1AmVYff8VC3va1o6ptLeBK2pqgTeu72HOOicCzmS+ESbq/gC8bXnMLhRSed8zgGPNzW/I6VVb9efmlfJWJGK3Z2VsVXYEdfyDtSmZ2zON/OrVvj3cDRFi+n39LDjy2uTN57yXOlXq9XxK/gXqSf3XdWAdtuu4Jbe7/P/gckIDHycckGKrPLy9obwVwS9riUSmugRS0UmC4GieUpdpA/0fkVi+Pa7nAg4uQ8mo4QKEq91qEMVhiX2s7BHPO4fDPkDgZyKW3LLRiBJafsoLD0ds34Bi9cV0Ccr7lK5zE9CGSIle80N9tyxcrjck1DSuvn7R6ssAjxkVk4FjE3XVxemV+ZE3Ncf8nqQMXPMilt0ReoTHpzK/uywYtn9fq4JnsgHuTPvfcQlLhay6O0b1sq+o6BZunjo5HZMSX2yiObMBVirsuL0V3Xoj8iqXKNtbmlx69tRyqz83M7Ozuby/P3bzU8yZM8yb+b/D+mE10maL3vWwAAAABJRU5ErkJggg==;" parent="1" vertex="1">
          <mxGeometry x="520" y="490" width="53.72" height="80" as="geometry" />
        </mxCell>
        <mxCell id="04ijFvJ8HovLDQiNbfhL-32" style="edgeStyle=orthogonalEdgeStyle;rounded=0;orthogonalLoop=1;jettySize=auto;html=1;exitX=1;exitY=0.5;exitDx=0;exitDy=0;exitPerimeter=0;fontColor=#000000;" parent="1" source="04ijFvJ8HovLDQiNbfhL-17" target="04ijFvJ8HovLDQiNbfhL-22" edge="1">
          <mxGeometry relative="1" as="geometry" />
        </mxCell>
        <mxCell id="04ijFvJ8HovLDQiNbfhL-17" value="Argo Event Source For SQS - Queue 1&amp;nbsp;" style="sketch=0;points=[[0,0,0],[0.25,0,0],[0.5,0,0],[0.75,0,0],[1,0,0],[0,1,0],[0.25,1,0],[0.5,1,0],[0.75,1,0],[1,1,0],[0,0.25,0],[0,0.5,0],[0,0.75,0],[1,0.25,0],[1,0.5,0],[1,0.75,0]];outlineConnect=0;fontColor=#232F3E;gradientColor=#60A337;gradientDirection=north;fillColor=#277116;strokeColor=#ffffff;dashed=0;verticalLabelPosition=bottom;verticalAlign=top;align=center;html=1;fontSize=12;fontStyle=0;aspect=fixed;shape=mxgraph.aws4.resourceIcon;resIcon=mxgraph.aws4.iot_events;rounded=0;shadow=0;glass=0;" parent="1" vertex="1">
          <mxGeometry x="74.25" y="490" width="80" height="80" as="geometry" />
        </mxCell>
        <mxCell id="04ijFvJ8HovLDQiNbfhL-28" style="edgeStyle=orthogonalEdgeStyle;rounded=0;orthogonalLoop=1;jettySize=auto;html=1;exitX=1;exitY=0;exitDx=0;exitDy=0;entryX=0;entryY=1;entryDx=0;entryDy=0;fontColor=#000000;" parent="1" source="04ijFvJ8HovLDQiNbfhL-22" target="04ijFvJ8HovLDQiNbfhL-15" edge="1">
          <mxGeometry relative="1" as="geometry" />
        </mxCell>
        <mxCell id="04ijFvJ8HovLDQiNbfhL-29" style="edgeStyle=orthogonalEdgeStyle;rounded=0;orthogonalLoop=1;jettySize=auto;html=1;exitX=1;exitY=0.25;exitDx=0;exitDy=0;entryX=0;entryY=0.75;entryDx=0;entryDy=0;fontColor=#000000;" parent="1" source="04ijFvJ8HovLDQiNbfhL-22" target="04ijFvJ8HovLDQiNbfhL-24" edge="1">
          <mxGeometry relative="1" as="geometry" />
        </mxCell>
        <mxCell id="04ijFvJ8HovLDQiNbfhL-30" style="edgeStyle=orthogonalEdgeStyle;rounded=0;orthogonalLoop=1;jettySize=auto;html=1;exitX=1;exitY=0.5;exitDx=0;exitDy=0;entryX=0;entryY=0.5;entryDx=0;entryDy=0;fontColor=#000000;" parent="1" source="04ijFvJ8HovLDQiNbfhL-22" target="04ijFvJ8HovLDQiNbfhL-25" edge="1">
          <mxGeometry relative="1" as="geometry" />
        </mxCell>
        <mxCell id="04ijFvJ8HovLDQiNbfhL-31" style="edgeStyle=orthogonalEdgeStyle;rounded=0;orthogonalLoop=1;jettySize=auto;html=1;exitX=1;exitY=0.75;exitDx=0;exitDy=0;entryX=0;entryY=0.5;entryDx=0;entryDy=0;fontColor=#000000;" parent="1" source="04ijFvJ8HovLDQiNbfhL-22" target="04ijFvJ8HovLDQiNbfhL-26" edge="1">
          <mxGeometry relative="1" as="geometry" />
        </mxCell>
        <mxCell id="04ijFvJ8HovLDQiNbfhL-22" value="Argo event sensor and segregator " style="shape=image;imageAspect=0;aspect=fixed;verticalLabelPosition=bottom;verticalAlign=top;rounded=0;shadow=0;glass=0;fontColor=#000000;fillColor=#FFB570;image=data:image/png,iVBORw0KGgoAAAANSUhEUgAAARAAAACwCAYAAADHYTFPAAAMa2lDQ1BJQ0MgUHJvZmlsZQAASImVVwdYU8kWnluSkJDQAhGQEnoTRHqREkKLICBVsBGSQEIJMSGo2FFRwbWLKFZ0VUTRtQCyqIi9LIqKXRcLCsq6qIuiqLwJCei6r3zvfN/c+e+ZM/8pd+beOwBo9nIlkmxUC4AccZ40NiyIOT45hUl6DoiABMgAAyQuTyZhxcREAiiD/d/l/S2AKPobjgquf47/V9HhC2Q8AJCJEKfxZbwciBsBwDfxJNI8AIgKvcW0PIkCz4NYVwoDhHitAmco8R4FTlPihgGb+Fg2xNcAUKNyudIMADQeQD0zn5cBeTQ+Q+ws5ovEAGiOgNifJ+TyIVbEPiInJ1eByyC2hfYSiGE8wCvtO86Mv/GnDfFzuRlDWJnXgKgFi2SSbO6M/7M0/1tysuWDPqxhowql4bGK/GEN72TlRigwFeIucVpUtKLWEPeK+Mq6A4BShPLwBKU9asSTsWH9AANiZz43OAJiI4hDxdlRkSp9WroolAMxXC3odFEeJx5ifYiXCGQhcSqbbdLcWJUvtCZdymap9Be40gG/Cl+P5FkJLBX/W6GAo+LHNAqE8UkQUyC2zBclRkGsAbGTLCsuQmUzukDIjhq0kcpjFfFbQhwrEIcFKfmx/HRpaKzKvjhHNpgvtk0o4kSp8KE8YXy4sj7YGR53IH6YC3ZNIGYlDPIIZOMjB3PhC4JDlLljHQJxQpyKp1eSFxSrnItTJNkxKnvcXJAdptCbQ+wmy49TzcUT8+DiVPLj6ZK8mHhlnHhBJndMjDIefCWIBGwQDJhADlsayAWZQNTcVdsF75QjoYALpCADCICjSjM4I2lgRAyvcaAA/AGRAMiG5gUNjApAPtR/GdIqr44gfWA0f2BGFngOcQ6IANnwXj4wSzzkLRE8gxrRP7xzYePBeLNhU4z/e/2g9puGBTWRKo180CNTc9CSGEIMJoYTQ4l2uCHuj/vikfAaCJsL7oV7D+bxzZ7wnNBCeEJoJbQR7k4RFUp/iHIsaIP8oapapH1fC9wacrrjQbgfZIfMOAM3BI64G/TDwgOgZ3eoZaviVlSF+QP33zL47mmo7MjOZJQ8jBxItv1xpoa9hvsQi6LW39dHGWvaUL3ZQyM/+md/V30+7CN+tMSWYIex89gp7CLWgNUCJnYSq8OuYMcVeGh1PRtYXYPeYgfiyYI8on/4G3yyikrKnKucO50/K8fyBNPzFBuPnSuZIRVlCPOYLPh1EDA5Yp7TCKaLs4sLAIpvjfL19Y4x8A1BGJe+6QofAuCX3N/f3/BNFwn375EOuP27vulsqgCgnQDgwiKeXJqv1OGKCwG+JTThTjMAJsAC2MJ8XIAH8AWBIASMAdEgHiSDyTB6IVznUjANzALzQREoASvBOrARbAU7wB6wHxwCtaABnALnwGVwDbSC+3D1tINXoBu8B30IgpAQGkJHDBBTxApxQFwQL8QfCUEikVgkGUlFMhAxIkdmIQuQEmQ1shHZjlQivyDHkFPIRaQFuYs8RjqRt8gnFEOpqC5qjFqjI1EvlIVGoPHoJDQDnYoWoAvR5WgZWoHuQ2vQU+hltBVtQ1+hPRjA1DEGZoY5Yl4YG4vGUrB0TIrNwYqxUqwCq8bq4XO+gbVhXdhHnIjTcSbuCFdwOJ6A8/Cp+Bx8Gb4R34PX4GfwG/hjvBv/SqARjAgOBB8ChzCekEGYRigilBJ2EY4SzsK91E54TyQSGUQboifci8nETOJM4jLiZuIBYiOxhfiU2EMikQxIDiQ/UjSJS8ojFZE2kPaRTpKuk9pJvWrqaqZqLmqhailqYrVCtVK1vWon1K6rvVDrI2uRrcg+5GgynzyDvIK8k1xPvkpuJ/dRtCk2FD9KPCWTMp9SRqmmnKU8oLxTV1c3V/dWH6cuUp+nXqZ+UP2C+mP1j1Qdqj2VTZ1IlVOXU3dTG6l3qe9oNJo1LZCWQsujLadV0k7THtF6NegaThocDb7GXI1yjRqN6xqvNcmaVposzcmaBZqlmoc1r2p2aZG1rLXYWlytOVrlWse0bmv1aNO1R2lHa+doL9Peq31Ru0OHpGOtE6LD11mos0PntM5TOka3oLPpPPoC+k76WXq7LlHXRpejm6lbortft1m3W09Hz00vUW+6Xrnecb02BsawZnAY2YwVjEOMW4xPw4yHsYYJhi0dVj3s+rAP+sP1A/UF+sX6B/Rb9T8ZMA1CDLIMVhnUGjw0xA3tDccZTjPcYnjWsGu47nDf4bzhxcMPDb9nhBrZG8UazTTaYXTFqMfYxDjMWGK8wfi0cZcJwyTQJNNkrckJk05Tuqm/qch0relJ05dMPSaLmc0sY55hdpsZmYWbyc22mzWb9ZnbmCeYF5ofMH9oQbHwski3WGvRZNFtaWo51nKWZZXlPSuylZeV0Gq91XmrD9Y21knWi61rrTts9G04NgU2VTYPbGm2AbZTbStsb9oR7bzssuw2212zR+3d7YX25fZXHVAHDweRw2aHlhGEEd4jxCMqRtx2pDqyHPMdqxwfOzGcIp0KnWqdXo+0HJkyctXI8yO/Ors7ZzvvdL4/SmfUmFGFo+pHvXWxd+G5lLvcdKW5hrrOda1zfePm4CZw2+J2x53uPtZ9sXuT+xcPTw+pR7VHp6elZ6rnJs/bXrpeMV7LvC54E7yDvOd6N3h/9PHwyfM55POnr6Nvlu9e347RNqMFo3eOfupn7sf12+7X5s/0T/Xf5t8WYBbADagIeBJoEcgP3BX4gmXHymTtY70Ocg6SBh0N+sD2Yc9mNwZjwWHBxcHNITohCSEbQx6FmodmhFaFdoe5h80MawwnhEeErwq/zTHm8DiVnO4xnmNmjzkTQY2Ii9gY8STSPlIaWT8WHTtm7JqxD6KsosRRtdEgmhO9JvphjE3M1JhfxxHHxYwrH/c8dlTsrNjzcfS4KXF7497HB8WviL+fYJsgT2hK1EycmFiZ+CEpOGl1Utv4keNnj7+cbJgsSq5LIaUkpuxK6ZkQMmHdhPaJ7hOLJt6aZDNp+qSLkw0nZ08+PkVzCnfK4VRCalLq3tTP3GhuBbcnjZO2Ka2bx+at573iB/LX8jsFfoLVghfpfumr0zsy/DLWZHQKA4Slwi4RW7RR9CYzPHNr5oes6KzdWf3ZSdkHctRyUnOOiXXEWeIzuSa503NbJA6SIknbVJ+p66Z2SyOku2SIbJKsLk8X/tRfkdvKF8kf5/vnl+f3Tkucdni69nTx9Csz7GcsnfGiILTg55n4TN7Mpllms+bPejybNXv7HGRO2pymuRZzF85tnxc2b898yvys+b8VOheuLvxrQdKC+oXGC+ctfLoobFFVkUaRtOj2Yt/FW5fgS0RLmpe6Lt2w9Gsxv/hSiXNJacnnZbxll34a9VPZT/3L05c3r/BYsWUlcaV45a1VAav2rNZeXbD66Zqxa2rWMtcWr/1r3ZR1F0vdSreup6yXr28riyyr22C5YeWGzxuFG1vLg8oPbDLatHTTh838zde3BG6p3mq8tWTrp22ibXe2h22vqbCuKN1B3JG/4/nOxJ3nf/b6uXKX4a6SXV92i3e37Yndc6bSs7Jyr9HeFVVolbyqc9/Efdf2B++vq3as3n6AcaDkIDgoP/jyl9Rfbh2KONR02Otw9RGrI5uO0o8W1yA1M2q6a4W1bXXJdS3HxhxrqvetP/qr06+7G8wayo/rHV9xgnJi4Yn+kwUnexoljV2nMk49bZrSdP/0+NM3z4w703w24uyFc6HnTp9nnT95we9Cw0Wfi8cueV2qvexxueaK+5Wjv7n/drTZo7nmqufVumve1+pbRrecuB5w/dSN4BvnbnJuXm6Nam25lXDrzu2Jt9vu8O903M2+++Ze/r2++/MeEB4UP9R6WPrI6FHF73a/H2jzaDv+OPjxlSdxT+4/5T199Uz27HP7wue056UvTF9Udrh0NHSGdl57OeFl+yvJq76uoj+0/9j02vb1kT8D/7zSPb67/Y30Tf/bZe8M3u3+y+2vpp6Ynkfvc973fSjuNejd89Hr4/lPSZ9e9E37TPpc9sXuS/3XiK8P+nP6+yVcKXfgVwCDDU1PB+DtbvifkAwAHZ7bKBOUZ8EBQZTn1wEE/hNWnhcHxAOAatgpfuPZjQAchM16HuSG94pf+PhAgLq6DjWVyNJdXZRcVHgSIvT2978zBoBUD8AXaX9/3+b+/i87YbB3AWicqjyDKoQIzwzbAhWoVZ8/D/wgyvPpdzn+2ANFBG7gx/5f6auQBe+LAaYAAACKZVhJZk1NACoAAAAIAAQBGgAFAAAAAQAAAD4BGwAFAAAAAQAAAEYBKAADAAAAAQACAACHaQAEAAAAAQAAAE4AAAAAAAAAkAAAAAEAAACQAAAAAQADkoYABwAAABIAAAB4oAIABAAAAAEAAAEQoAMABAAAAAEAAACwAAAAAEFTQ0lJAAAAU2NyZWVuc2hvdA/n8NgAAAAJcEhZcwAAFiUAABYlAUlSJPAAAAHWaVRYdFhNTDpjb20uYWRvYmUueG1wAAAAAAA8eDp4bXBtZXRhIHhtbG5zOng9ImFkb2JlOm5zOm1ldGEvIiB4OnhtcHRrPSJYTVAgQ29yZSA2LjAuMCI+CiAgIDxyZGY6UkRGIHhtbG5zOnJkZj0iaHR0cDovL3d3dy53My5vcmcvMTk5OS8wMi8yMi1yZGYtc3ludGF4LW5zIyI+CiAgICAgIDxyZGY6RGVzY3JpcHRpb24gcmRmOmFib3V0PSIiCiAgICAgICAgICAgIHhtbG5zOmV4aWY9Imh0dHA6Ly9ucy5hZG9iZS5jb20vZXhpZi8xLjAvIj4KICAgICAgICAgPGV4aWY6UGl4ZWxZRGltZW5zaW9uPjE3NjwvZXhpZjpQaXhlbFlEaW1lbnNpb24+CiAgICAgICAgIDxleGlmOlBpeGVsWERpbWVuc2lvbj4yNzI8L2V4aWY6UGl4ZWxYRGltZW5zaW9uPgogICAgICAgICA8ZXhpZjpVc2VyQ29tbWVudD5TY3JlZW5zaG90PC9leGlmOlVzZXJDb21tZW50PgogICAgICA8L3JkZjpEZXNjcmlwdGlvbj4KICAgPC9yZGY6UkRGPgo8L3g6eG1wbWV0YT4KgeJiAwAAABxpRE9UAAAAAgAAAAAAAABYAAAAKAAAAFgAAABYAAAdEcM/L4gAABzdSURBVHgB7F1pcBzHdX5Y7IXF4gYBkKJ4gDcl3pIoUqWr5EiWKrFsy06ckmM7KbvKleuH88P/8yNx5UdccVJyxYkrTmKXlDiVRCrZkqVQlkqyLooURVG8KZAgAQLEjb1P5L1evEXvoGd3Znd2sUt2oxav5/Xr16+/nnnT09Pd05RIJBYwQFNTE1DguEyJT+mleGY67Oh1QofKXjO9VCeVvIpHOrKZBYjMpuDyiRBE5tIQ7PLAwKYA9Nzus4SRmV7iy/hSWXZtU+lgXia1ANfORmDicgzaer3C5s5+77IyWZ7Ldwo3ld5S9UunsnD1kzBMXUsAnZ296/1w27ZWcHtdebvL0WvEuVo67Og1w9mODpKV243rWS0dojztQOw5EAItnczC/EQShk9FIBnPQMcqL/RtbIGu1b78iV3q4uDGZVrNRqYyyIGMnI/AjU9jEOzxwGp0ep0DhfbW00mcimdh8locxi5EEe8FdNB+6EeMW7vcBRdJtXBzov3s2FZP2Ft1QlS/Ju1A7DuQhSxekBmAsYt4QQ7FIYvHPWt9sHpLK3hbXOByOdN7cPIkJgcyeiEC4+RAFntNRodXLycx2RqaSsEI9piIdg54oX8wAB3YY3K5Cu+ydi5SccIbetJmdXYSe+MFaceOeq+fdiA2H2HkBo2G0nAd75CJcAba8K5Od0l/sLkuHUgWHd7M9TjM3UiBv9UFnf0+vJt7CnpMZheTXGe6sPiCUF0IKp6ZXrOLlHoc4ekUTAzHIB7KwMDmAHRhb8njX3p0YTtqbZud+tmxzQwjOzrs2GaGvR0dQrZUD8SsAnYqbKbDrrF80jA102vHtkqBDOMdkvowLW1u8PiWTvB6sM2IA43fUO9IDCiQgRgYS6ZWeZXiZrSNy2dKvbpkLAORmbRwzt6WZsv2Vts2qxip5MxsM8NDpUPFY9xUaSqemR0kS7awPqYqHULW6ECISUHOmOM4y5MrUA39VutgZgfl50YtpouuRsQ7H5zErVLbZPuL1aEcuZrZRt7OJr41s01ueATYStub2VZOG1TSpmZ2kE7ZllJ1KvkIIxvJypiq0qzy5AqwPqZWdajk7Oows4N0E5Csj6mqTDMe8SlwXqZWeSRPwWiHiseNzmUwJVmOMyUeB+YxJT7Hmap4lEbhVrKtGB4qjFQ8M9zsth/bYqSqMlU8MztI1timxWwr6UCcKshYUTO9xYy1qsMOCGZ22NFBsjeDbRr7whuG6hxQ8ZzAzQkddmxz6rzXDqRKd1InGsgJHXRSWXVujXoSW63fSlxgVm1rVOxLOhACnQODwcdEmcfUKo/kKRBwnJepVR1CweI/OS/zmcdUpZfSKBjtUPHsNLJQuvhPLp/5zGNKfI7LlPi1sI3LVNmh4pE8hUptE0rwn1y+kSencZwpyXJcpsRvJNsa9dxa5kAIeArcGLmj3H8neaSLAgNHcSf1W9VnZgfl17YRCrlgbBuN29LsbTOMiG8VN/lcU+VzmudU+y1zIFxhprLhzGOqSrPKIx0UCDjWx7QedGjbltpF1R5m7adxKw83diB8DTBVYa/ilSOvaisVr5htyxwIKaAgG5TjOMsj/RTYOIpXu0xVGWZ2kKy2jVDIBWPbaNx0D4TOjJo7ED4R5RNQ5skXLRnIaRTn4CTPzA4qi2zhspiyDUSrzatH27jOpWxjnFiej6uJG5fViLY16nkvHIjcuBznxuBjOw3PeSrRwXmZsk47dqjysh5Vml2eXXku26wOnO6E3nrRwXWSqbYth0YxHIqllYMl53FCr6zD1IFwgZpqBDQCGgEzBJY9wrB3kSllNnbnVTzuhsl5zXgkUy0ddvSa2WFHB8ka62ym1wwPOzpMbUNMl+zIohjOAV/EuUA/rt7BCfjEEut42CZsZMGlliEe6xJyqEfmmdWPZI1yrJ/1MbWj1wkddmzT9Stsb1VbCTz1WpglR0aAUJBPnhxnyUHwMcvxic18+eKolGdmB+mVy+Uy05EIxMfH8DcO6VAIMuEQ0jDSeXGcDoeFSS6/H9xtbeAOtkEz/jztOerr7QV//wB4uroK9FMmLkMoWDymuNEOFU+WoXSjLqd5dnGj8jmslG2NitGyHoiTQMqNwXGZUlkEnMxjIFW8cm1jXZSf4zIlvtEOFa9ebMsmEpCanYHY6CgkxtBhjF2H5MQ4pKYnIRWah2w0CtkUrhJe/OXiScET9WrGLQc8XmjyeMTP5fWIY3Is5FC8Xd3g618NvoE1SAeQ9oOvpxfcra0F+KkwUvHqBbd6tq1RMbI1BsIXHTVEvQUnbHNChwoXJ/QuZLMQvToMMfpduQyxa8OQmJyA9NQUJKenIDUzDZlIGBYyaZUJlnlNuGOPy98C3u5e8KDT8HR3468Heyb9EFg/CL61t0PruvXQjM7EeNJbLkQh6ARGCrV5h6dKs8qrlm1Wyy8m54Rtleiw5UCKVUSnOY9AJh6H9Py8cBDJqUmYPXEcwqc/gejFc5C4MeZ8gUU0NrcGoXXjZgjs2Amde/ZBy9p14CUHg4871DPR4dZEYNkjDHsjpgQLx41UlWaVR7oo0F3Mab3GOyPrt2ObEzrKrV8miY8b+BhCPY75Ux/D3LGjMH/iA/HYUrKHQQOh+IjS5MJfM+7/R5T2AcSfoDkQgHo0C7QvI1H84W7R4ljESaZIcLd1QGDLdug4cDd07jsAwS1bwB3AHonPh8VZ3/iHiuC2MVJVWiU81l8POsiGej3v7dqmeyCEWB0FuqhD587B+C9egNl33sJxjqu5C5seTaQ3KmYmu7xe8PetAc+qPnB3duOvEzydXdhTwEcRjNOJm8ZHndTMTO43NwPp2VlI4eNQ8sZ1HEOZM1O9xCcnRQ6p2S0GYoM798Cqxx6H7oMHwYfl6nDrIGCpB8JwyF7cyJPTOM6UZDnOlPObpbEcUzM51sNyTM3kOZ2pmZwTeu3oIMcRv34dJl57FSb/72WIj47gm5M5yGJvRBnwInZ5fTjIiQOda9ZCy/oN0Do4CAEcn/B0oKPAAVKXG3cwpx9e6GLAlHoHmI/KWkinxS+bTgHtEE3lZKIRSEzcgMhlHGO5PARx7AEl0IGl5mdzvRWFIdTTaQ4EhIMK3rEb+h59AroPHQYX9kbkuyxlZcyZmvG4GJZjaibP6Uw5vx15zsvULC/rZjmmZvKczpTz25HnvEyd0sH6mJajV/dAZNRWKB4dvgIzR9+D2fffgeilixC9MoQXN17YiuDBwc2WteshsGkTtG7ajHf8fnCjw6BehpcGPLGX4ULnUU4gx5LBR6ck9U7wLQ/9kuhQosOXIXzxAkSHhiB1Y9TUmZANrYNboG33XujYdxf0HD6MDqw8W8qxX+epPQLagdQe84ISJ157BWY/PC7GOcJnThWk0YF4TMABTG9fP3gHVqPT2Aqtm7fghboJ34pswLGHgOhVLMvoECODr4wTOLckcukSOpBL+Hh1GhLXRyGJPHIw2WRiWUmeji4I7tqLDuQ+WPWZx/RjzTKEbh6GfoTBtuQuHFO5eZnHlNI4ztSMx3pYjinx6dEheWMCTn3nTyCMF6Ux0J2bJnv5cS5GAO/qwR13QPuuPRDYuBE8yKfA+pja4QkFNnXQgGt0GAd2T5+C8CenIHL+DL5WvoKOZDo3x0QxRrPje9+HnvsewLGSoGV7y7HN+LjkhA7GlSnrJMo8pnZ4rIfzMq21Di6XKdtlxw7dA5FRq2E8hQOXwz/9dxh/4ediEli+aBqgROdBg5Eddx2CPhycpDt5PYbI0Kcw/tIvYeoIjtmMjUI2EcfHG5pCn3vDRjav+uznYO1XnoaOPXvrsQrapgoRsNQDYQ9lpFR2uTzKR0G+c7Au4nOcqVWeXXmVXqd0kG6z+qXCYRwwPQLD//QPEMdJYUIWBzy9nT3Q+cDD0I9dfxrjcLe3QzPOEGWbmJI8x5la5ZE8BTPbWB9TM700wzWD0+eTOIntxiu/guk3juBjzkXIxGNCP/1b89U/gjVPfhGC+NjF+piq9BZLU8lb5Tmh1ykdZHOl2LMtRmoVD5Uc6aJgxzbdAxGQ1f4fvQWhGaSX/u5vIXzqpHiT0brzTui+9zA+pgzio8tqwcvP3ai9idZKxJNOvEHC9TdRnCE799FxfP38GwidPYUTz7bAxj//DnTs3a8nm1lDs+GkbDkQ9nb1WMtGtW3m/ffw9e2oeO3px2niQex1UI8DbwP1CHNRm2jAldblRC6cx17VFfGKuevgIfF2qGhGTGzU9itVr2qnrzRuyx5huMIqwyrhsV67tJIyrea1axPLW9VfiRyXZZdWUqYqr93yWV6ly2kel2WXOm2HSp9dm1hepctpHpdll8p22OqB2C1Iy9cWATE9Hd/uZOKJ3IAmrcalQc0FnK6OP/yHP7SJejc0WLs4xd2Fg7a0Epcmf9EcEpoKr4NGwAoCNeuByF6LDKNjCjRgw8EoQ/xq88zsoLIbzTbaDyR67SrMn/wI19CchAROUKMp69lYFJ0K/pJx4URoKX8zrrh1+VvFqlr/7euhffceaL9zFwQ24GvixSnvhAEHYzvcTLhxHYka6+k0zww3+Vxzukyr+sqxTfdACN0GDTQQS9PO53GFbvjsaYh+ehHnloxCJhYTvwWcnk6L73KL5agXIjntpsXFddgLofUzzS0BcLX48S1QN/hvx2nxW3dA+x134pugTTg1vqNBEdJmVxsBUwdSiSd20uhK7FDlbXTbaM1KBN92hD4+KfYFiVy+JKabp3BfkDSuWZFfoZZTV3qcaW5rF2tbfL2r0JngtPkNg9C6ZRu+TdkLzehsxCNQOcoX86japRJeBaYsy1qJHaq8ywqwyFDpqoRnsVhLYrIdpg5EpUnOyOkqHqdVi6rKVPGqVX4xvSo7VLxiOszSIrjALXzuLMzhviChkydwSvkIJHE6OY1xVCu4W3GHsr4BCGzeCl33HITg9p34enbQ8deyKoxUvGrVs5helR0qXjEdTqSpylTxnCjLqg5bDsSqUi3nHAI0x4LGNmgnsok3fg2zb7+Zm6yFK2fNAg2Ourw4KIrrZPIDo4src0UeHFjN0qMNDrJmk/gTYyQx8biDzzlKtTS46unpg85774PeBx+Gtu07xIZC5S7cUxaimQ2HgHAgKi9WbR7ppyAPHlW7TCrPShn1ZFtqbg4nZ52AKz96Bhe0nYOsNMuT6kNBbB606CDEeAa+UfH13wZ+fPTwrca9QWjXMNzrlNbWEN4ZdBi06XKKdjubnIT4MC7dHxmG9Nwsvr3BNzj09oaW++MmQyqH0rJuEPq/8CXox2n2LaifgxVsSbbacvXUfsa63my26R4In/11SmeOvg+Xn/kBzH9yQlzUqgvahxsItW7bAW242I7epARxpS45ktxeILk9QMQrW37jhc5bnMi0Gxm94k3jfiDoNGhCW+jsGfEWJ/zxR3h8Vbnall7zBnB7w4HPfwluf/prdYqcNqsWCGgHUguUKyhjEh9bLvz1X+KS+tECLW4c6GzdhlPfcaFd27bt4KUdyJBHvQza4Efu2RVkNDtAp0IzSenTD+KTELi7e/jiedyn5H0I4fT0+PVrBTlpW8OBJ5+CzX/x3QK+Pri1ENAOpM7be/bDY3D5Rz+E2ffeEo8T5CTorUj73gM4qHmvWHBHmxtTj8PpkJyehhjOJZn76EOx4VHkzCe4dH9KvBYObNgEA1/4XVj3tW84XazW10AIaAdS541FH4maOfouTL/5Om49mAZPbz+00d4gOPGL3obUIiQmJiCEc03m0ZFEcbyE5pUE8ZGp+/D90LFrdy1M0GXUKQLCgRgHesjWWvCMmNSiTKtl1JNttJFPaj63P6qHlvfjpC85WK1TpXJkRwz3bW1yNeHX7DoKvg1D9lSq3/jYVYk+GR9tm/W2sYub7oEYEdPHGgGNgGUEtAOxDJUW1AhoBIwIaAdiREQfawQ0ApYR0A7EMlRaUCOgETAioB2IEZGb5JjmdNDGzfTRbZphalxkJ5b04+xU+mKdt7tLLO/X+4DcJI1fw2poB1JDsKteFE4Gy+IU9DROAouNXIM53Bdk7vgxiOD3ZowTwejbLS34jZl2/LZt1/4D4ot23p4e4UgqXW1b9XrqAuoGAe1A6qYpKjeEpqNHhz6FKz/5McwdfVs4EvEZy8VdyQpKwGntNL1dfIgbp6YHd+2HNV/8MvQ+8BC+Jm4pENUHGgEzBLQDMUOmwfhJ3A9kEiebjf3Xc7gr2TBkcLGcWAxnsR7N+PU7f/8AdB1+ANb83tMQuO22ivf9sFi0FmtgBLQDaeDGk00ff/kXMPqfz+JCuOPiMwtymtU49UhacAOhvsc/B+u/9e3cnqlWM2u5WxIB7UBukmYfwhW7Iz/7V0hHw/kakUNw41iHH5fce/vx27q4ZoZme4pl/PjR7AR+giExfr3A4dBeqe279sHuH/6z3lw5j6SOmCFQ1IHQyUbTieVQC55cnlm8FnaoyjCzR+ar8lWbd+1n/wYjz/0U9/W4KpboezrRceB3dVu37YT2PfugDfc3pa/DuXC8IzYyAvO4bD+ES/ZDHx2D2OgIvq2ZEkv6aXC18+BhuOOv/gZQWK6WcD7lng8FivCg2nhQeVbL0LaVvsaNGPFxUQfCQprWPwKh8+dg/MXn4caL/ys+3N39wCNiUJQ2RqZdyVSBBliTuGv7yH88C5Ov/QpSUxO4n8heWPP016Hn3kN6DEQFmuYVIJB3IFa99UrIrUSZhJKVcq3IWNVViRxtT5iJ4k5jtNUh9hpd+CjiDgbFd16wIqRaBKO95EQymIfyUtzl9eGeIkHxOrfc3oaxDDqmIOszylD6SvDq3TYZs5XCSFUut1XegZCQDhoBjYBGwA4CVXMg7KHsGKNl6weBem4/bVsdnSeJRKJwBKWEbarGq4RXojhbyZXYocprq/ASwir9lfBKFGeaXEmZVvOaFl4iwar+SuRKmGCaXEmZVvOaFl4iwap+q3IliitIrloPpKAUfaAR0AjclAjkHQh5JwryoI1Vj+WknJkd2rbCjqIRczPc5PYkDI35asHTtpU3HaJecDOzQ5w7dh9hKJMOGgGNgEaAEGhKJpN4kyp+dxOCi5PKnL6DcTNUotcJHaryndDrhA62jSnrJFoJj/VUooPzMmWd9WAb2+KEbU7oYHtk6oReJ3TINnHcil7LDoSVqqiVglT5SvFUekvlMaardKh4xnyljqulw65elbyKV6o+xvRq6aiWXqP9pY5Vdqh4pfQY06ulw65elbyKZ7S/1LFRR34MpFRGna4R0AhoBIwI5B0IeRYK8uOM0dtQ+krwVqJMq3WtF9vIDgr12n7aNuvDBKIh8V+9tymda3kHwkZrqhHQCGgErCJQdAxEvrtynCkVwHGmcqHFeHIax5k6pYP1MVXpldM4zpTkOc5UpUPFk+U5zlQlr+LJ8hxnSvIcZ6rSoeLJ8hxnqpJX8WR5jjMleY4zVelQ8WR5jjNVyat4sjzHmarkVTxZnuNMSZ7jTFU6VDxZnuNMVfIqnizPcaYkz3GmKh0qnizPcaYqeebdEj2QRDIJs3PzMIObC8/NhyAciUIsFodkKglp/DK96IrRWyb8w43+GBtBmUcdUE5Z4i3JczqnyUqK8eQ0jjO1rqO4bazHvt7GqJ8K+9yjXBO48Ct6PvxusN/vg1b86HgbLhTs6miHHtxM2u/zYrqL4dG0DARuSgeSxU8wRtFBTOA2f1Mzs4LemMQ4fix6Zm4OQqEIpscgTl+jzzuQMtDTWeoWAZ6Z0NzsEg6kBfd5DbYGoIOcR2cn9PX2wqqebujtph/ugYL8ZtwrRQd7CFT9EUbuBnGcKZnKcaZmPK4WyzGV5bN41oTDEZjGzxlcHRmFk2fOwdmLF+HayHXhLFiHphoBQmDNQD9sGdwAd2zbClsHB2FVbze04RYIHrc7DxCfZ0wpgeNM88ImaSzH1EwHpzN1Si/rYb1M7djBeZbRm2Umaja7AKFIGN4+egxee/NtOHP+AmSwJ6KDRqAUAi58fF2Fn7R46L574bceul/EyYnQxaJDcQTyPRD2LCTOcaaV8GqhI4yb4Rw7cRJefeNNGMbexnw4BIlEsnjNdapGQELAjY8vNEbSg48zDxw6CIfu2g/rbltT9rVQi/Oey2BK1eE4UxWvWJpKXsVjHfkxEGJQWOl5BGZ2qGyjsY5hfFR5672j8O6xD2Hk+ph4VJHrICql/2kELCJAjqS/bxXs3rkdDt99APbvwi0h6fs5NMjOAyuLupzk2Tnvq2kHVc1Yr2K2NawDoTcrFy4NwTvHjsN7x08I52HxHNFiGoGSCHR3dsBOHBu5/+DdcGDPLgjgICxfSJzZeKERv1we65adgxlPlqmkTKt5zewQ+VdiMZ0MMseZklEcVDxKI+dx9sIlOPLmb+ADfHShNys6aAScRqDF74fB9evgdx79jOiRdLS3FfRGVOdnMZ6cxnGmsu12eXblVWXJOjjOVCXPvHwPhBn1TtP47dfL10bg2f9+Hk6ePiPmdNS7zdq+xkXAjYOpffi69+tf+TLs2bkD2tGJ6KHVpfYsGEQlNnWP2PMwJT7Hmap4lEahEh3F9GZw1/Dp2Tn4+x//C5w+dxEitJO44blUGKD/aQQcRIDO643YE3n6qSfhnr17wOPxLDvHqbhqnfeV6HXimjTTQXXO90BkIUqgQDzjBVptnpkdZA8Nkr7w8qvw+jvvQgjne9Agqg4agVogQLNZaUD1s488CPfs2yuKdPJaKHbey9egk2VSJazoK2ab5R4IN5KVAq0aJsuxXtlYmTc+MSnmePzPL1+GyekZ7Ty4QTStGQI0BkJvZp545GHYvHGDpYuPjOPzWDaUeTKldGNvQ8WTHQqlsw6Kc3CCxzqIUlDZ1hAOhAZN6TUt9T5O4wQxHTQCK4UAzV59EOeJPPXbj4t5I0Y7+KKT+cV4nFbsIjVeuHXlQHgmqlwBrjxXjo+JVpunsuMKDpo+j87jpSO/lk3RcY3AiiBAvY9vffX38TXvFqB5I3Io9/pQnfdmvFo5EK6XmR2UbrkHwsAwFZkXx0iYJxdUiscgyHLsaUk3x2mc48VXjsBLr70OQ8NXKUkHjcCKIkAL7w7u3wvfRCcSxNmr1Tjv+fyninJcpsQ3XjsqnpltpEslr+KZ6RCyPA/ETMipguTKc8WtGDs6Ng4/ee7n8PYHx3HlbJqy6KARWFEEaGYqTXn/7p9+GzZtWA80X4SC8RxX8cyuJ7Prz44OkuVrS6bV0iHKq3cH8gqub6Gxj4tDl8neWzq04FiQL52CNHabY/gqMeMq7D47BQ71yrvbmnC/jCZcoIgrnGMLgLseVCW4cOGrJ7CAS+kBkpEmyKToQqxKUY4qJafx+ScehcceehAGcOo7hVvSgdT7GMj3//HH8P6HJ8SGQI6eAQ2grBkf34LJBPTFwjCQjoMXe2CebBqyTS6IuD0w4/bClDcAMy0BSDYvLUEvp2ot/iZY3e2CjQNuWNfvhmBLE3hRZSwBMDmXgZHJDFydSMPIRBZXOZdTwlIeN96wA11Z/AH425vA7cO5R7ivTzrRBIkQljkLEMVfIlS/U7Zogtlm7H388R/+AW4JsDFfOb7z5xkYscIjGQrcQ6G4GU+WYblq8szsEGXXqwNJpVK4EdA0fO8Hz8ClK8NAk8hupRBMxqEvHoXV0RCsjczDhlSkoPpJPOGmXF4Y8wfhWrAdxpHOe/2QMgzqFWRSHOCGXbC6xwVb13pg+3o33LneA5vWeAok5yJZuHIjBeeupuHUUBqGxtIwE8pCyuYTJfU2WroWoK0PoK0/C+0DOQciF0YOJDIFEBoHmLveBPHZJkjjwuqFCp2WXIYTcbqoaG7In33zG2JeCG1WRIH45VzMxS5SWV+5+qtl2/8DAAD//xHL/swAAB2vSURBVO1deZCcxXV/M3vfh/bS6lxJoBOEwQcICIjTCGxEcHCwCxuDbRJfuGyX48SVVI5ynIrzR8pVLieuSipXuZI4rgA2lwBzxBKSOCwJ64YVq93V3vc9OzuT9/tWb9X7bX8z3zfnt7vdW7Ov5/Xr169fd7/pft1ff4FQKBTlQIFAgBAkrkLgkR4P58TDC1/hMTQ8TPteeY2eePYF6hsYAItlEdAK+eEwbRnooitHeqkxNBG33qOBIJ0sraYTFXXUVVJG0YttGS9jTg5RVWmQ7v5IPt1yVRHVV+fGzDITIersD9PThyfo4IkQdfRFuE/EzDKXGGTWxdVRatgeoZqmAOXkzyVpI+EQ0Wh3lDqPB2i4I0jTk1qyrCNvv+kGuvv2W2nLpo3zxof0Y3XMyBiC0BJXIfB2eh0ONAhqXiccaBDsfJ3oQWvn68TDovWrAens7qa/+9GP6d33W2lyinvTMgk5kQht6+mgD470UF3Y/aiZpgCdKFtBr9atpYm8OKPzoi5rK9l4XJtPd3+4hMqKg641PDg6Qz/91Tg9d3iKQmF3FqSsno3HjgjVbeIOPdun45YXZYM1ORKl914N0tAFl5nick0twdpVDfSp+/fSzbt2LRikKMntwI01SN3yQHluB/+SNyBtFzrou9/7G+obHKbwzAx047uwcd1aalq3hupWrOCGI+rq6aXT752jrt5eCoWmPcsb5F+W0tAk7W0/S7XTE5Tr9uedS8Iw7swrpCNltXSsblXcsosKArRzYx49fl8pVZTkUNC9/aCZSJQOn56iZw5O0hun49czvzhKtZdHafUHiHIL4oo2jyDCTd95gqj7dIDGev1nRCpKi+nhBx+gu269ZYGxQEXcDn5jQLizp0IJwuN8Wzs9/id/SpM8EC9O2OZ1rGx+KSkuop3bttJV27dSfW0NFRcVsjjcwcfHqX9wiF5/6zd0hg3J0MiIJzGLp0O0caCHdg92UFEk7CkviKd4KdNSWEbPrNpEoZzcmEuZdQ05dMc1BXT/jSWey0GGgZEIvfj2JP37i+MUmo49C6lcHaGGbUQrNiRUFE0OE7W9FaAuNiJ+CjAOeTlB+sJDD9K9d310gbGArMaAXPwVtE+NoBw7Tga/XWmJKLKltZUe++a3KRINUCCYM2ecwCubobAgn9atXkX33XUHrWlcSfl5eQvEeefUaXrhtf106t1mqwMtIHBA1E6O0S0Xmmn19Lin2YfKro9nIc/VrKPOsnIKs96cwq7t+fTQ7cXU1LBQfqc8dvwhnoX887Nj1NIZe4a4aicbkB1EbNsSDu1HiC4cC1Bo3D9GZGaGjTwvOf/g4Yfo/o/dvcBYoLL2sYDvCOkYO174OsnhhYdF61cfyPvnW+nRx7/Bs48A5fIgDcYYDKhIpkLtimr6yAd20r133uZY5NT0ND31/Iv02qE3aHJyypFOTQhwx1o7PkyfbD3p1kWgZp+Lj7K38u3iajrSsIYmcvXGIY8dmvdcW0SP3VM6ly+RyNn2aXpi/zi99LazjyqHRWjaFaX6rbFnKfHK72uOUgc7VIfaPay14jFNIh0DMMwzxggbkT985LP0wL0fX2AswN4YEAeLCeWkw4rKLOZcy3l65Ktf5xkI70oUFFCOw2CAHJkMTWvX0J033UjXXLk9ZrGvHTxMLx84RG0dnTHpJDGPO+KG0UHa2/GuoBKC1jImt5BeXLOZRvL1DoeaioBlQH5/d2LLFxGsoy9MLx+dpH/b57xTVFIToTXX8PKlSXIlBoc7eUfmRIB6zvjFgERoamKCJyAz9OVHP0efvO/eBcYCNTUGJIsG5HNfeZxm2IGaxwMhl3cWgth3zHK4bMN6uvvW3bT98k0xJYEf5JXXD1FzS2tMOkks4l+zTcN9tKenRVAJwRDPXzp5j/TpdVtpOB++mYVhdS12XwrpvuuTMyC9QzO0/8Qk/fjJ8YWFXMSUr4xYztOqtY4krhLG+qLUxQak43j2DUiUt4dmeKs9NDlhGYivfOFRY0Dkl9+txUSrp3MG8v55noF87Rs0zcuBIG8RiBFx1dvSSAS/x83XX0u/8+EPxiwFPpCXDxyknr7+mHSSiO3b9WND9In204JKCE4EcuhUfintX72BxvL0M5Cy4tkZyGfvSM6AtHaHad9bE/SzV523mwsreGn2Id6FiW1v49Z1qH12CdPXnH0DEuEftdDUJBuR2b755c8/Qg/sNUuYeY0ohkRFphIHXghiuBBX+be0ttEXv/Etmpjgzsm0OewHgRHJti+kvKyUdmy+nB7c+zEqyM+bJz/qgNDNRuO5X71Kh48co6mQs39glvrS/4bxEdrTdpZWRLhjXtx7upTqLjbITocD5fV0ZkU9TTks+zCR231VAT3MBqSmIvFZ3fH3Q/Sfr4zRG6ecd4yC7ANZe02EfSDet3DVGnezXe34LR8u68muAYmyoQ+z4ZiemuJuGeE+mU9feuRh+sTH75nXf0V2tU8DF6/fO+WTvOp4SQbnJAd4qmXY5beXGbA7UUGAEC/jLFXidE4VEOGxjfu173yXBoeGrGUMDIcYEaERGTIJc3g2VFezgu65/RbawGdAKsvKKDeXvZIcIty5+lneN468Q4d/c9S1/0Pkr5iaoGu6WmnnxCDl4xSVxzDDy5eu/CJ6pqGJBgtLaCbG4Y4rN+bSfTcW0XVb9MuceEVPhqL06+Pwf4xT90BsWes2R2jlDj7jUpvYDgrO07Uf5fMgJwMUnkyMR7z6uElHn8WsA85TLGEQSktL6bGHP0N791zaxlV52cdRvH4vee35gE8lzkkOlKOOr3hlLjAgkkGFwjQeTgpW6ZxwoNHxFXocJPvOX/01dXR08KGs2V9xGJG8gkJ2qObOq6TFKIP/8ngbA0Zk1wevpqY1q6msFEuBgDVbOvVeM/3f4Teot29g7tfGrWgF3CkbRwbp9r7zVIHpscdZCHZgzhRX0AurL4tbZF1VkG68Ip8+e0cpn2XgrXKP47KlK0zP8pH2J/Y7L19EiNLa2V2Y+i2spQQmEFi+tB8N0sB5j0KKACmC2LYNc1+EAZFQW1tLn3/oU7TntlvnBrj0f9BIXIXAo5+rOOn3bnCg0fHQ4Zz4poKHVZ59BmKvQKoKcstXKtzR1U1/+8Mf0YlTp2icvd2iHDhS8wuLLb+Ihczyv6qKcqqqrLA6RC8vXYZHxzwbDrUKeezVv631DG2cHKWSaOzzFWo+dKmWwlI6WNlALZU1apJjfOOqXPqjB0qpsSaXctmIuA3ov/venqBfHBind9tjzz6EZ+3GKK3fFaH8EvflWHm5rPcPEfW+F6CpEY95pfAUQPTfaT4lHGafHJYxEjZt3ECf+eTv0e4brndlEJzGk/R7+zhBOXacEw/Qgo+dPl08rPL8akCwdPnlCy/Rz598in/NLzkioSCcC8n1gT8ECsSSJufi7hCO3GMZk0zAcfb60SHa1ddOa9mI5LuchXTlFNA7FTV0bEUjTbvcrSpnZ+rVl+fSQ7eVUn1VjmsjcrR5ip7aP2EdYw85uz/mqQHO1NpNs8fZrSM9LmwBjrH3n+PZx7GgdYw9gVXdPBmS+SLGAw5UNXyUZx5YvmzfsjmpgbtkDIgoR6yYfAdMJU61olKGyh/PkrR2XKA///4PCIfKuHQh42lwkP0ObER8srU7J1iKIjgT0sDGY/3wADXxzsxKh4fqYKpGedflfFEZnSutovaSchoqKHItBZ/CpjKeEexYn0cf2pxHOzfkU4PDE7lTfFy9ayBMR5pD9OapaTrTFqbB0UttEq9QPI1bUBalypVElWsjVFYfoDwHUcN89m68P8qHxgI00BrgeIBm4j9yE0+EhNLRJ7FkwQczD+m3YIZB/82vfoluuu5aqqyocDU+JL8YDPBR+z2+I6Qb5yQHyvYi2wIfCBggZKsCIjzKn2afwLf+7C/p+MmTc36QWenIWsLgcBlmI3466i7yJQsxE6mcHKeVEyPUwI/0l/OZg1J+xr2Af5ZnuOOO5ebTMG/T9hQUUyc7TPv5M8G6SCQUcLYNjTl0+eo8alrJ/h1+SreaH/MvyOPBy87SvuEIdfTPUPOFMC9ZwtTeG+FnlNwbD5GJxebH+NmZWseGi/0iRVVsVEr5eRL247IdtB7ZD42xL4lvb8CDc6N9/HwPL1uyMfNA/8MuS4T74DQbD/vMA/0UDtS/+ONv09VXXmHNRN2MGdAgSD9H3E2+VNM5yYFyvMi2wIBIZQSCoYRYODVN4gKRX+IqBB7CqjgRXnA/4Ef69/OBrL7+S8sY5EPA+ZAgPzQGpypgMIh5sYu5sZV7cfzDEfdCdqjWjo1QFa/Bi/inOMyeyEE+JNbPxmOwuIQiGJkpCLwrTSvKg7S+PodnIjlUXMh3cYxF6ELfDLWx0ejqT255pooIQ1JYzneEVEbZiHBb5kZpapSNxxA/wj+U3WdeMNPACVM4TbHbYjceqEce97nNvJ3/9cc+T5s3zR5ykT4rEHQSVyHw8fq90Ot4ACdBpbPj1DSJqxD0djl0OPuYFB4Wrd0HAiSCSjSLSS0O/BFEOMR1ZT7/yqvsB/klnTpzxkoHnT3AkFizEetcBh68A0VqBpW9LPN96Wpgtk/yVi07SuEshRGRfmqvdWlJCT3wu3tpDz/GX19XayXr+q8dJ/zi9Xt7PhSQSpyTHCjHi2xxZyBqQVIBJ5wUrNI54dzymJ4O09//40/o+Zdepik+vBMrYIcGsxEYE2z5Stmx8pg0owFoAM5vnPHABzMO6Z867cBp3riygX74/e9RdVWlNRMGXSr7vfDS8RXZ0L+FzgknY0Clk3zgLXGBOpwTD4sWMxBE/Byeem4fPfXs83T67NnYYrJC8YelDIyJtawB5BmKmZHEVt1yTMWggrHAE7VYrlg7aIyTweikkxXV1XQTb9t+8TOfppLiYieyZYG3ZiC6morFUtPc4iSPW3odnfAAbOPDZE8+8xw98fSz/Hh8/INLyBNgPwEMR4CNCZysVpxx2MGZXeHA1FiE+G/CUtUADALqpsAIO0ejvDyJ8CWvcJTK7gr6YbyQx47qHVu30pcefZg2NTXxbqC7RwF0fdwtTmRyS6+jSyUP4QW4YAkjiTohvOJUeomr0BLANg2T6ZJdjv2HDtNPf/6/dOy3xyXJNQRPGI7gRQPC1mXWeOC/cZW41uOiJVSMB/qftbuCLVn+eAsBWrtmFd15y2566IFPLFgiS99WeQpOhUiXJYMKdflSjYsnh1fZ0mpAYlUeFRFhhU4qJ98BBdfV00OvvX6Q/uO//sd6PibZA1tqGSZuNOBGAxV86nj3jTfQfXfvIdwL4/Rjp/KS/is4r/1e8gHaeSWDc5IDPNV6xStzgQGRDCoUpvFwUrBK54QDjY6vEz1oW9vb6b95R+aFX71sHW8XHhYj889oII0agOP0ZvZ7fOyuO/kyqSvmBrP0dRQtcYE6nPRZ9HOhE6ij1+GceIA2HXxjjUlHHwiE8VsI8558d28f/cO//Cu9deQoDQ97u7TYb/Ux8iweDXyYH5zEtYVXXbGDr3Fw99qMxVO7xCWNOwNRWauWUvCCEwi8xAUKrZrmFqfyQHyG163nWlroZ0/+gg7zrV+6A2YqbxM3GkhGA/lsLNbz6zse+fSDdAU7T3EfDIL0S4FOOItYoZfvKr0Olwq+meCxqGYgqqKPHj9Or/z6AB16821raaOmmbjRQCo0UMZH1bdcfhnt4TfPfeSaq/nahuQuoU6FTH7jsWgNCBR5+t336NX9r9OvDx6i821t1sVDflOwkWfxaQBb/tVVVdYTtjez0/TWG6+f51hcfDVKn8SuljAyFbJDiJUoTvIlwwN5cW/IgcNv0tP79hFehzk+PmEMCRRjgmcNwFlYwO/9qa2poQ994Cq+4+MG9nlsT7iPQwDp5wJ1uFhpOnodLls8FvUMBIpEgF8Ex9x/+JN/4iXNW5ZfBAo1wWjAiwZwSGzbli3WDWM7+H4P7LzIDoQXPsuJdsEMRCqvWrR04YSvwGTKxLmQHt6haeGlzOtvvGnNSjq6uhI4LCTSGLgcNAADgbs8trHBuPOWm2k9n+9oqKujosJLd8Um0y91ee161dFkC+dVtiUxA1ErPcFH3WE4cKdqN7/k+i2+GR2viOjrH7COwaNhTFi+GoDByOWZRUVlJa3j+2x3bN3C99quoVp+xzEOh+HZltlnp5avjrzUfMkZEKk8DAWMyTsnT1MbH0AbGBy0Xn4NH8nY+BinTfFLofnpSzx56flIs5SSPojXQYSm+CYsls/PIcgDEludBYX8yg2O+yqwPDAGeH9xAb/dEC9Fh4EoLiqi8vJyWrVyJd/lsYEvyK4xRiPBhluwhJGpk0CVbyycmiZxgeAhcYE6vmqaxAW65RGLLwbl0PAw9Q8MMBylcTYweHGVGBDMTexDQIdTy7DHdfRuccIL9P19fZYvZ+LihdKS5jeYyxc5VfEj7XV8JwaumZSgq3OsNB29Dic8dNBOD3uGJ7KLigr56sYSquZZBy7AhgHBTCSVfQvyCD+BTjiRXegEOtFLukDJr9LrcCq9xAWqeVWc8BGcQCf6JTsDEUUsVniel134DPHl0n4OmH00NjbSJr6VC7/yJiwvDSyYgUj1VcuTDhz4I6he7nSXifLclOEH2RajAYExUdvTrb5TTeeH9kOdEOz9banJZmYgs+3su/+L0YCYGYjvulHaBfJkQOzWFNLpcOmWWlemDpduOXT8dXLocLq8Km65GRCdjnQ4VUeZiuvk0OHSLY+uTB0u3XKo/B0NiE4wtzi1gGTjbst0S5esPGp+t2W6pVN5w4C0trbyE8fDKtp3cSxbGhoaPPlA3OrDLV0qleK2TLd0icrmlr9bukTl0OVTy3Q0ILqMBpc5DbTz1vOFCxdoZMTfVxbg9GZ9fT2tW7fOOFEz1z18U5JlQFSLIpKlGwf+CKrTLd1lojx7GU5yZFu2QT630sUH4hbLLkw1XzQsr/g0bYreMxvc9jdVZ8hpz5cJnNNYiCWbmYHMtrPv/i9GA5LLr9QwYXlpIGMzkETVmglL7EfZlooBWa7tl2ifknyLRW+eZiC6SkmFsw2XmmxLxYC47RdLrf3c1jtZumzrzZMBSbayJr97DSw3A+JeM4bSTxowBsRPraHIYgyIogwT9a0GjAHxadMYA+LThjFizdOAMSDz1OGfL8aA+KctjCTOGjAGxFk3jinWm9zxUuY03iMyOjpK/f39NDY25iiHHxKwdVvD92ngfg05B5JquXCnh3zsZxJSXZbh500DxoC41BcuHsKLrVSYTgMS4rtL8CJx3Ffi54CBXcT3a+BBunQNbjEeMFAwWPiY+0r90SuMAYnTDjLbwKXN+GBgw5CYkHkNwJDg2Rt8CvnOUhgS4NJluDJfw8VXojEgMdoMxgNGA8sJGI50zjhiiGGSNBrAMzglfMsYDAniJmRHA8aAOOgdS5Xx8XHrYTYYDhzYMcE/GsCsAx8sn0r5jXGYlZiQeQ14NiBoNPtgSjXOjRpSXabKT4wHHJh+90G40dVSpoEvpJgvSi4rK1vgxFXbNFkd6HilGudGxlSX6Zafk2yeDYgTo6WExxOweIwevo507SwsJX1lsy74MYMfBEakil9HiQFhQuY0YAyITddYruAeDpzDgJMOHdN0SpuSfPIVxgMzRPin0Fbr1683/pAMt40xIDaFY+sUN4EN8Ksf4Jyr4LeWYRaCXzkT/KMBGA/MEOGnwgdtddlll1kG37RV5trJGBCbrvv4fSy4yAc7LwiYfeCQFLz9pmPalJXFr3hfjuqjgpHH1Yq1tbXGoZrBdolpQNw6WDJBZ9dJusrEVYIwIpiJSEDnxBQZv3L4yPkDY1BEQ+mFmG1gaYkPZh1YsuADZzfSENAWlfziqFWrVlk7M8C57SOgVYPbfJmgU+VCPBNluilDaGIaELvwy+F7c3Oz5f+wHxaDwtBJZTmD7yZkTgMwFGJIYDhgTNSA9sCWblNTk3U+RE0z8fRpwBgQm27PnTtnGRCzfWtTjM+/woDA4b2eHak4YGZCZjQQ04CgUWSKKOJkAidlxYLpkkO3hIklh0nzhwbcLmHcSJuuvqWWrStDTXeK6/JlAucoD68lzRFLRTt2J6qSZKI+1oBxomanceZmILBiCOqMIxOWzU0Zbmggeyro4N3HNi7OgZiweDQAx/bGjRutY+0wJghu+gNoEPza7/0sG3Q2Z0AsLZp/lnOura2Nent7zVO3i6Q/YPkCvwcMCHbJxCgsEvEXtZgpMSBuLH22tJSIbDhE1t3d7fuXOmVLp34rF2d0cAYEFxvBmGQqJNK3lppsng2IW6W5pUulQt2WGY8OOzCYgcCI4HF+E/yrAcw48AxMY2NjWg+QxeszoiG3dEKfCui2TLd0XmTybEC8MF/MtDgeDYeqLGXUNfJirtdSkh2+Dhwew+lTnBY2IfMaCPCvLY8NdoYoziSxVAIhlsQF6nBIQxB+KtTR63BOPNLFFzLq5AAOM5Genh7q7Ow0/hBLS/75h34C41FXV2c9ryT9UiAklbhAHQ5pCGpfjUXvhUe6+MbqsyK7CtMlh6ULs40LNegDGgonUvHMBQyJPOKvpzbYTGgAAwOXB9XX11uzDtzFKrsumSjflDFfA3MzEBUt1kuHi5Wmo9fhVB4SF6ijd4tLFw8cm8b2rnzwnAyexTCnVdWWSV8cW7QwGjAWcJjig2Pr6o5LrLaPlaZKHYsuVloiPISfQLc8dHTZ5OFrH4hOMaoCMx3HMxgwGnCsAuK7CenXAGYYYkRgSGA4ZBqf/tK9leC3PutN+vjU9vr52oDEr46hMBowGsimBuaWMKplkbhACChxgW5xXul1fFPFA7yTcZalUzb5RZW6CtSV6RbnJx6Q2a+697Nsfu8XZgaC3mOC0YDRQEIamJuBqLnll0sg0iQu0AknfIROoBO9pAt0oksF33TwEJ5Ocku9BDrRCR+hE+hEL+kCJb8Xeskr0Cmv8BY6gU70ki5Q8nuhl7wCdTx0OJVe4gKdyhc+QifQiV7SBUp+L/SSV6BTXuEtdAKd6CVdoOT3Qi95Bep4CM7MQEQTBhoNGA141oAxIJ5VZjIYDRgNiAbmljCYriAk6+iaY8z8VF7Ay5RIoA7nJAdoVX6xeOj4AidB8goEXuICdTikIdjl0OFAgyD8BDrhLGIP9MJPheCxmGRLVkeiM0BVD174Ih+CXW9eeFgMLv5LtRx+l21uBqIqUhQiypDvgOnGOcmBsqVRMyGHrgwjW2I31DnpTW1Pnb4zgfOLbE5yQAeqnkCnfs+mjqyy+UAUy5OaZ2HUykhFBerSdDhVkZLXCSeKVOmccOnkgXqIDlWoq58OJ/Lr0tzinOqH/KpMXsvySq+T10k2p7bS8dDhlpJsTjpCvZNpv1ToLZZsZgYCDXNQO+MsZiFOVaRKg7gMBsTd8Eo13WKUTdVZqvXhlp+T3jItm5McqIcqi9/6lq8NiCjLSbmqYt12mGToVDmMbNCkO2Op6m02l7t8bvknQ+cX2VQ5FlPfSsqJmmhnEAWpDS+4eIpU6cSA6HBGtsSWpZnUWzraT+TX9S0dzqm/pUM26ade5AAtZJG8AnU8gJOg0rnBqfQSVyF42OUAztczEAiIgIogSKMiLpVDXEK6cU5yoHwjm7TCwrZx0puqM+ROd/vpyvCLbE5yQGZVT37SkaXPVDpRVSVIRQWqjRcL58RDFCl5BSbLVxpH+AnU8UWaTg4dLhV8U8HDi2xLvX7QhbSvCr3oyAsPL3wXq+7NDAStzEE61Oy32f92nNrIQjdz4SzNNB8lmhihYNMVlNt0FQVyFz5ubueF/KnE6WSbh5vmKwjOHaHouWNE5TWU07STcho2WNVIpRy6es2Twyoxdt0jAx0UZp1G289ScAN0upMCJVUXc8bOO0fEETf18iqbV/6gT0YO5JcfEre8Uk3npCOrnGRmIGCA4EZB8eiEhypsPJyq2Hj8kS5B+Mp3wFg4SQNEQLmCC79/jGZOHKDo6ADlbL2O8rZeT4G8/HmNjjxCj7gErziVXuIqBF9VNqQJjkITFDqxnyInX6dA9UrK3baLctZss9KFh/Xl4j+vOJVe4ioUOVSctJ8dN9PdQuGTLCsbu5wt11myBstr58QT+jkER2Lh1DSJq9CLbG7LdEsXTw6/y/b/U5lWkX/lCXMAAAAASUVORK5CYII=;" parent="1" vertex="1">
          <mxGeometry x="295.05" y="640" width="134.95" height="87.32" as="geometry" />
        </mxCell>
        <mxCell id="04ijFvJ8HovLDQiNbfhL-24" value="" style="shape=image;imageAspect=0;aspect=fixed;verticalLabelPosition=bottom;verticalAlign=top;rounded=0;shadow=0;glass=0;fontColor=#000000;fillColor=#FFB570;image=data:image/png,iVBORw0KGgoAAAANSUhEUgAAALgAAAESCAMAAAB5He/JAAABVlBMVEX////+cz4AAADi9fzN7Pb+/v7+azy10vP+YUKy0PPk9/wHCQn+bzf9/Pv+p3f+cTv3+v7+aCn+bDD+bTPL8Pv+m3z+aEvS7vfHx8e61fTf8vv+ZEb+ZybG3vb+Wznv7++AgIDY2Nj/1sn/7OaysrLm5uZoaGiXl5fU6fnt9Pz+d0T+VzT+r5UyMjLBwcF4eHiOjo7/4dj+pIehoaHP5fhdXV3g+/+0tLRSUlLExMQ8PDzS0tIaGhpgYGBISEgpKSn+c07+dlD+yMD+opT+jXr+mIf+h1z+yLYiIiL2jWz+jV/+oHHS4+r+1M7/UyrhxMP+sKT+f2j+u6f+u6T+fU3stabyoojmvLHfzMjsqpv+lmnyln7uoI7+cEf+elz+r6P+kX/5gW3ibUA2RkqPdW0KFxlcJg+HTDbDYj41JR+0YkRQLyN8TDtmOyugWD7GxtvQvsn+XQrE+1qbAAAY30lEQVR4nO2d+VfbWLKAhWljY6x4xWDjBWMMXtghCQmEsIQtDTQBZ+l0Q8jM9Ot53e/NvPn/f3l3kXTrbpKwjcWcoc7MaWNfSZ9KVXWrSleKYTzJkzzJf44kk83GxkaJykaj0UyGg0byknCyuVHKj9oScT7kSwg/aDqdJBslh1TgjpCP+Y1m0IyyNDfyjnKxeRRsaTSQ0eQxOf7/I2NvbhCNRhBxIebIMBLnjwLij5CLkG88EpsJN4iuS5R5WCf4xwa+LIi99AjUntyg1G7MEL6A2LHaC8FiN/PE54b9UDvwhRJWe5DoBLtUuAe1hT5M1J4PyGAwduReyobsDYxeCsBNkyWs7eFuqG10HIk2Bs3doEbSLTZBH96IDNpesJXkG10ZCYeO3DQySKUTdfeMTdAbWOkDsvQkVndvVgLIC9hJG4PgbirUHUsmk12jb+Dw8vDcDawgQd2xMBKevDDhSMFT6YMwF+RNEclMCHiYfltAyD9I4opPzeVho0tJad4UvIn1LDMDem3Uj5Ue1tDDeWzeiuMS8GE3aA92YugPRq7jHh7G3K7KBujqeBRrPFxEV3HHsGnHhidiMX/YRJToD0iu4E4a4bAR86lrD/QHIy9J3NS0w/fG/kFtMIS8/3aO4wl/MKxurPBuwLGbqsn7XV6gffLclrq75UYiBxgSW/obz5vivNM7t0rpOJ5H+jmHJtGkzHNTM0lq/TJryz3J82j27yM4MvANyE3NWzflZLMT1c8fP/1yevrp4+cz/LcWXU4E8v0MLQ0hoBBuI6mhPvs8ni6m0/F4fKg1MpJJ7f3y05mWXYwusUIfzTwpOKYLdzb702kxHR+ypHMzMoLZi0cfdewTIjly0EifmrvIUKBiKHdTif25lXKoGTmSVPGXqhpdIi/1Kz1v8gZOuVXRJPulk0oM8dKyyUdGiqdVX+TDkf4YSzjCzTwxHXf2bLwoYmOdjzAp/jKhQhfI8TzUj8iywRlKTBe9s18ycRl7aCgBydMjX5TksrH0PvUnuYii5/5ZpW5J5yPFj946J5GlZ/9EcxkMKJp4kh1PabA5M8fkv6rIRZX33uJKcp6ZJFWx4sCnaS23oHJk6N7k2D97nPlL0DNpgiJP81mbO4FmHYXFcCofSX1SkPNmjoJ5jypHCge9CGLgBZn7F1vf7589e/ZVYSwjvM5/9iTHKu/Jyjegwptqx8x+tO37x2dEZJ3fCOQ/Kci5tAWrvKfAIilcrneyX4qWnbyn3M++SuSCykfSZzK5EM0jkUgP3Ggq4D1TYShnQxZn3OJ+9qMU0EXwkVNPlaPA0sP0mQchhUyZckTJfsoMCeDP5JlIsJWR4mcFOafxwmgPGQvKUpgaiMKliJKtFm24+I9ajQsREYuqT8ervAf33ACTZsxQe+apQ+nY+HvZOyVbSakiCwfe6ME9YV+WKFzm/lIEeFqFy+AjmTMvlXef3SJL8VT4OEf59cdnP75X5lp791d597YCLUVt4T+c8VN9IoH/pxRJ5TcyNxdYerCVPLAUdZKS/eyWo7jbSlGR4XKxPNZtXEHTPduJoZ7sj3S5rChyWMmoki3RVroCb4DpPqluEp75VbgCfGREYSvQPbGtdDUHlYCJq8vj7E+9gKdUJShUeaHLEg4EQ2IpinT214w3sh7ca/aMoRSxdL/AspHPl/IRZuIaS/Fv4irwjKoW4mylhBdDle4RWnBPBi8AgyaubEi0fIPLUWVk5MgLHHNE7tGSC0eo8CYux5R7+KbSOW88ajjcpyDiFzxJxzPfJCauOEhVXyH70fiIV/FZsED8lp82uOObTY2JO+Ctjhc40DNLcVVNam7y7BUc+6aql4LAWze7N7e5aDSay910WnpwQnuzm9tFQ6fQfwi+Cpwz8nx34M7JY99U9MKz1cTuVBRIbleLfkOwwdip3b09BbcUVroB9/DN7Nm7qChTuzpT2ePPkYgqkHPeaYWVe4JHOHC59vkSLeOjl8vtCyTtsqV1lbknOrdU22gwFmvsxYH7FGSFlfuCO5lKTOWb2c9tfOx29N3leQ3J/rcPlGdqTwZvUex2+8Pl/vnq+f632zLd+k4mL/QR3JDBsx8v8IFz+ybbrnZQLhNyaVraJZS5yxobe5nD6O3vEnnv4FwYF3Lx7GfC/Q2NDjuCcO7aKvJbYiRXYTAYffxGyN+J5MA7Y4V+g2e/YO7oKsSmOPuEnAsuiT3MvVsTBhvGKrkOYsYCw0qv4FKmckZMoiZgE5xzfEo5QJ7oYO5bUx5s1IiHCv04DryrcKgHzx4i8LaKG43cx+TAQYlj5hTcmBxfnzJf73PlW5/Bq4jtYh9aN6Q5KHMqx47JnST8iK9PmTeW/oJzNo4VXv4OHQ2HFvYXnml2ocLbl9rB3/G141TONVf6C44t/MLRoWGsb4dCy3UGgx3UUTn2zBzgnj0JheaqzsY1pPI212KBGu/OxvOaqJL9CYExhRtzodDYWChUZd9EgZVjhTOrMqbp4EmHHKv8Vgve25QvTEBZZMSMxZhFJEhCi4zuW9mxlRaymwvHM41Ja/C2/RW5PJytAPAuJ6BRHfgH6G3GJmUZC205X50zW0GWUuaujjV4yQY3MTiMiHAC6hU8zIFPYOdzIMOLNsss+w4Z7hTV+A0CZ65p7NiD553ByJbKH/sL7mQNYS47PGtHy+8ULK/Yd3h+6tgab58rNM7O8g6FKJglwlylu7SWVUBhrpDA4IeMZcVmYXOM8cHxzl0efNYeXHHAkceUDzXgXRYSsHQDM5AAXhkjMKF1EPPeOeCCxo23dPAK+wqDw+x2uHfwDVhzsniIwjgwlbBR3wkhAdxU4x3bxgE4Os1NPHgefCNqHIJ3V3OyGYiv8idy3JSC1FivVrnUz8ApSMsxFS45MCrVKjfr42kYTPpczdldlc/PQMw7syi9bvOgBv+niaJKzkkNywdcgiUOxjPUZyV4rMu+ilAtO95JJqBVZWposZA535o5Uey8dRuL4/gF6PHLBdA91iNELPCC0sjxlC9oUYC5YzMnnvIv1AkwO8kyqMRl37xHr7lhPf/KeSfrwZ3hY4nFD1TihWPixMjBDCQP/oBdXWPiefrg7T2W2zYLzWQzLzQPma3clXmPE1hIQm6ntaT+UZYRZOzqBT/jC4XbaKN5/0edm6NcZwXYCq44y2ENDMlUQQmUk9xTUHg0xwxF6Kp0ubZ5lDdyEFe+40lDDWOEcU3vKJwm5BcaXzau2nxM+QGutyuNdrmAosSMnL8/m622+bIGoBjvkA6nOqBBQZpBSv8khlL+oM6w8O3CLlcJNcFtN3IgZ/+kHXRxKTuoEX6HJ59b2FjBKXk5pyAn6W+0XdVMm93edENUYPEEWR3EEq3sIQ6/h4KdG0btFieGQtN2j3QNz6W+ymVb7E5M9MVSOFsRlwdlv+OYmDs3YJVsXpLuYU5sNt+Q/slhDY41Vj8Qbm4d4jCUHtaTFYRbtLDXnCU2AZuHtYMo6WTeyk1yQl5uH67aY83z7xdliZtzzY0elgiFR13u5me/kTZc+2L37uDy8uAud0GbxwpuRD5F0cvvDi6vvh1+oF3pcpvvYnG3UfK9LLAtiesnYHufVPu06Y2Fft7tqO8gWo1mPLZtj21/ONO2gnpaZyOsbRKsHN+SuIU3RzD23pD2zueNMDYaFVesDPMK724FgiVg2qeBhbuhn/0U79zsTuVyuehU7nZ3z+Pe2w1gn7q5Ee/lcwov9LjUE037vMq5WypsBRw2Bndqa9DNze7e7s0NHpyquii81Ovi2rywnowzluzPvhchKEQA5ybNnhbvySoXF2H3Bh7n28uihff6HBNUuWgs/QQXl2P1/HxHEz5pEBMm/o89gCda0F0m+q1weQU5BPe9lswLnF9F1vPqcSL8mv1YEjx32ht4R50V0q54Px5hakD/xMLA/a/Jcgfndo8NpT/Po+bFR1Ad8C/+F6y4gfPcyDP79ICh8OgVI1eBJ9QXQc4EGDh/PXGJ3K9HOhv8w26MXF4ilOjMpOXFtfHEqUSeeG+B87vun6FgyXMPAzFy1dom0/wqfps6NWekCxG3Vu0LDy+V+hDCmSQjopkP68BTqM45zsD4nskcG8aVFPHjdImqwN3o30ORRJryM/ka8PSMYRrmWjFDbSOeTi+gv40jyX7i5HEgxcNi/X3auiE56DCK52fyzJm5NkwzbNSuj1KpVDHx9crEf9cUA3FvWTBA/PhPv5/ML41Kr1WZ+OFMDhbxNSNsYnQDL79BBSn6wzRq8qXJ/JwVH7aO9fWBZVvyCvIJxVLPv/y1QmARfDhMPxiVv8njMj+/kJ6d7atj2oLfmSG9eEFRYbZCr02L3BKj/tt/ScOG0h9fyNz9fLTdERRaRPIXqtL4JLRdN8IOdthYCoV+l4elvgyIm75WgLeWF6eKJzl+x3enKngDEtcq0+jvvyvA6zL3Q736E+ucI3/xSZGQ/50sM5h7OVmv1JfW3+BVB78pCtJ4ZWDclBxGxRfyvILkv/G9zJAt+LPCUhItiD2cfxC/BOT822FefFSlVH+xbh8zUfQtEh3mm7FC/sFflYVjS569YORcmQv+zpOH/lCMAeAP9EYYUTbgG6c0CfmfkDz0P6ohDniMvGtqEO/gw/fkbEOvq8Fb/xsC3MpWUfz9C9tMRgf1Gjv80kDrXYf1ogoKyR+/0TVMod/+ULe4KHhseEBvgqMS3iBKj7mAD7X+8edvoZM//6HrJ8ZPX9hvmRzkW0mbEfqmRj04Qm+1XNbwI3D6DrgBv9eTKD2/4QbuLshUsFMO5lWHnJC3kf6z6zI/8yt+2CiI16gSJ+0ePP1/o4G9uBahdw+e+mckyBc0Kyobn5L5NdC3wK92DZ4YCpJb0XXwLalV790/mJjSTWT/0roLEPwg6vmQm1Z22+eBce+Xc3tdKzyH14IEIuGDci530z34VHQqCDM393ejuVzutgfwqWj5bsDmUtu/m8LYuZzuoTxvmcISbecO92um9xH7AX11d1uOTuUs6Ro8N0XRo+V29MPlAMy9tn+Yw88VkoPKi2p8yy1dRFFul3PvrlYH5Ke186tvh98Pv+1fKVen+JBEC126g8PDg6vzYGIL6x/fbw6Nfw0EF4jdPcxcK9+ropPMQtDg9q2GtHyXx03Sx0GD223PxL8pOL5N6AfYzm1SM0GDr1ng732Bt+x3DgWa1ELw+OmqDe7yIo1Ex07ggwdfoCTxcQdc8e6ShIWbeH9sjSoGlBnqwRNHclWUOHJGzTwa8CtKEl9zwK/lm8jjVlGNRllFajpwcOvaZxYsXca/LqjA7VF2WyAzmIzQB/i1Db6mAjfpd5krk/bsEkOPBvxqxj4DFbiRsEYZFngn8H9bz+JNHzsflOD0FjSaL62wfxQ0tzGT4sHjavCODU4/xE+D5rZ7WQ54a1UJfmSDf41TTwia2+4eplbph4QGnKY06Rlrps0ED26FiVSNRjwd+LgNTn8NPh03TGohRdMdnH6JwK8fDTgNE0WriNOBX9ngNHymr4LmNkwS6HDt6w6etsCpDwdfR1hFJ4rLZoKC15TgxzY4jULpwOsIgwY6hGYQxkTHcMATLQY+w4MHn45btRsOb8Rm4u8dcFbNIXBH0TUShVKBJ4eWqWSurQ9OAMEnY6Yc8JoNbj4WcIvo2LIZFOfsfBxRWk0XCG444wMW+n7d4qptM1d2voi1apXGGDxjm/YRjULBqrx23CJoibhhgSNVWuDITe17WwjcJDU0Br+mE1VxLTD/rF0dpdLUFlL4ypP0CRmDXcyNO6kj/tixwa0cYSieSiwEwL660LKph+LFcfyVjeZUFAiSgZPTIlFwpmg3vzKpzNpAA7p51Sn+q5iiUkwdEU+j1Rkqgu2KYsY+GQJOYk2GzPSrp4mitXWx+K/0wiDNPWyatdoqEftGyFrGMmwLnDQgxp0kllhNYohC4q3J5jUiAwSXpEb/KYn0tV2F0nKYeicGp96ZGDoOPoI7Ys4sHNF/BijeMm1YNIUatndiUzGuaKGRTo/PBF4oG2Zt9Xi8k07R5fmJdAer06pxSMZNQwgtjcctp4ynWmvHq7XVwBoU5szaUadz1LG9NN65Iiy0oLf6yLTWpDP88VHc9ud4q9PpjAeUItYs10JuNjMzs2r7mBXGrVYVTVwSR/QvszYzQ8fS7QLvCgG5pqHbroZpMjgU7zyCPNZFagvWg1eJtK3MNeuL4tHVI4onUMIzCy37IZpEkZlvx07P08XO9aPT++r1UdGKLThsDEHAcft08ByfGn88gbyGojiijmPJpNOp1KmQbNfWhoqpdIaOSBeLKBoGH8lRpBgfX8Myjv+7cDWjtIbazPE1GWKNDb6OeJIneZIneZIneRIs1Zcry5uvX29Or09WfG1gbs1Pby5uTk8q9jW78nw7NLa4s+x3Z5UlvAWSneXZ+j2ot6ZDUHZmPSuVpefO6Nc8W5XfV+i1584q8yfcFifz/s7WePk2JMm027bmPI8Gfnq1I+8rtOK2s8qyYotlH+iTJ4oNQ/j1rjqZFYe+sn+pq7Ddd7ai2WLeA9uc02yIFKk2NvoiWk5WrJ/WtfsKbapVWNVoDcmiq63X9Rsi2VJssbUtj5umP6muuSPbVcXOpGvHicLtnRN23VC16ZJq2Cz+xZSvhNfO5j22eNktt3wwJXeI1GU682YiXkAv7lBoSc1d99wwFOINTX2mxAj0vqLb2UsfW6jsywi72rcli3ALU2HfoecEx8UvNTvzvtxIxlRzgDBRhJ7Pv9x6tT49xn+7ArYQtLo9vf7Smhkrwr525l9Vq1uzorvCnS3yP72eX8JbiFBzMvcWN+CEzW9bvLWy6zvJfb8MLzzvmGDmW+L52Da8gU+zH7b4fcmR7TV3KO4nzvqeO19D0+KjLKcEIWRzRrRpf8tdIiFkcxGAMy/pV/G0OLetKrbY5MfDa7Qi7Is/K3tncMKUzKECL5MYWeCx5DkKki9b34FLtKMfLXHzbmjtzHTjRj+Di/tavzPlBMl+tjwb0gm+DjxKQcFfK/oNMMa3qi3gwfiQCHxDoSMeZlLcQpzRQJRUpyRv2AB65VlSrA7V0DN4Pnbdx5Qbwos5LWwh6gioR5MF1oWdmSzmKi+RAZXBHa7ieSyQMlHH1m8BrrsujWYqJxjAUNUK51QOXXDL+1iT/JCqekdYmFW90ewLnhv+k2WF27otgGqhZbLz2dFtGeZJmYOdiCPZhDqr21md3xnzl2XdFsBW4CTDwKe1W7KQVOW22BQHssiqik9EQJaDxzAz1JdGTB3w5NjV1ZdIbOrFYYXNGJI7MbfVFy2L3M58XCONAbJv9afM1LLEgUtXl4HrPK038OfgW4ah1ziLBB7g/KVRy1tuDNOJ/vBsDNQ4s1i9d7BjvXIH96E/ECOwFvw4545yDItHUvZlC4gqvI1Lx2IXVTebwNj60vAVDsHh4dTpEpUVx8KBwEVJDENZsGABFcWsv8OD/Abmh+DSqVMV7lge4ABDU5fDZHCWP/y05vCgnOCmyB3N96pTI6Yy73IolnmcqG/Ewux71tfhwfV+zv0AUgG1YcL68pUHOMgk5R8NoS6eFQ4vzWdYYELOVxJQoapQzvWYvMBhjaMwlgrXHFgXD6+yVZAHi34zJ+6LE77x4wVuwHavRG7y9TI9GKz/5VgO4cTz4i6f6G9Cj8kTnKuuBY660Iyh4FxVO8d7RoVrM0g+wDVJTqCetrgGgB9wTuWht2ACrYiNEvvyct+PgZnL5BvPsiGJPZzpV/jcKlvrQqcm5B1VpLbU4jxpFNWXFI05C9zkv91eoVu8EnpIUg5t+Ovd+QXX9ue14Jr+qSjKtM21n31PcB/NWgHc17lqclevjvZ9wMOiY+iEmbN3g1c3q4d9kvsBN0yf5MAP33gM1RzJ30ljwVGFzXU6NZjPXXahBPcwVn2NY/jsa+Mki/mSfn9S6FMJN0G53QRyuQWERXuHDwhOPdmMoa2I0Qwgh1IqwIz41KOuu0xvvO90LqmOtr1uOkZL0yB7lLLXx1Soumnxpi6UU1AmVYff8VC3va1o6ptLeBK2pqgTeu72HOOicCzmS+ESbq/gC8bXnMLhRSed8zgGPNzW/I6VVb9efmlfJWJGK3Z2VsVXYEdfyDtSmZ2zON/OrVvj3cDRFi+n39LDjy2uTN57yXOlXq9XxK/gXqSf3XdWAdtuu4Jbe7/P/gckIDHycckGKrPLy9obwVwS9riUSmugRS0UmC4GieUpdpA/0fkVi+Pa7nAg4uQ8mo4QKEq91qEMVhiX2s7BHPO4fDPkDgZyKW3LLRiBJafsoLD0ds34Bi9cV0Ccr7lK5zE9CGSIle80N9tyxcrjck1DSuvn7R6ssAjxkVk4FjE3XVxemV+ZE3Ncf8nqQMXPMilt0ReoTHpzK/uywYtn9fq4JnsgHuTPvfcQlLhay6O0b1sq+o6BZunjo5HZMSX2yiObMBVirsuL0V3Xoj8iqXKNtbmlx69tRyqz83M7Ozuby/P3bzU8yZM8yb+b/D+mE10maL3vWwAAAABJRU5ErkJggg==;" parent="1" vertex="1">
          <mxGeometry x="590" y="560" width="53.72" height="80" as="geometry" />
        </mxCell>
        <mxCell id="04ijFvJ8HovLDQiNbfhL-25" value="" style="shape=image;imageAspect=0;aspect=fixed;verticalLabelPosition=bottom;verticalAlign=top;rounded=0;shadow=0;glass=0;fontColor=#000000;fillColor=#FFB570;image=data:image/png,iVBORw0KGgoAAAANSUhEUgAAALgAAAESCAMAAAB5He/JAAABVlBMVEX////+cz4AAADi9fzN7Pb+/v7+azy10vP+YUKy0PPk9/wHCQn+bzf9/Pv+p3f+cTv3+v7+aCn+bDD+bTPL8Pv+m3z+aEvS7vfHx8e61fTf8vv+ZEb+ZybG3vb+Wznv7++AgIDY2Nj/1sn/7OaysrLm5uZoaGiXl5fU6fnt9Pz+d0T+VzT+r5UyMjLBwcF4eHiOjo7/4dj+pIehoaHP5fhdXV3g+/+0tLRSUlLExMQ8PDzS0tIaGhpgYGBISEgpKSn+c07+dlD+yMD+opT+jXr+mIf+h1z+yLYiIiL2jWz+jV/+oHHS4+r+1M7/UyrhxMP+sKT+f2j+u6f+u6T+fU3stabyoojmvLHfzMjsqpv+lmnyln7uoI7+cEf+elz+r6P+kX/5gW3ibUA2RkqPdW0KFxlcJg+HTDbDYj41JR+0YkRQLyN8TDtmOyugWD7GxtvQvsn+XQrE+1qbAAAY30lEQVR4nO2d+VfbWLKAhWljY6x4xWDjBWMMXtghCQmEsIQtDTQBZ+l0Q8jM9Ot53e/NvPn/f3l3kXTrbpKwjcWcoc7MaWNfSZ9KVXWrSleKYTzJkzzJf44kk83GxkaJykaj0UyGg0byknCyuVHKj9oScT7kSwg/aDqdJBslh1TgjpCP+Y1m0IyyNDfyjnKxeRRsaTSQ0eQxOf7/I2NvbhCNRhBxIebIMBLnjwLij5CLkG88EpsJN4iuS5R5WCf4xwa+LIi99AjUntyg1G7MEL6A2LHaC8FiN/PE54b9UDvwhRJWe5DoBLtUuAe1hT5M1J4PyGAwduReyobsDYxeCsBNkyWs7eFuqG10HIk2Bs3doEbSLTZBH96IDNpesJXkG10ZCYeO3DQySKUTdfeMTdAbWOkDsvQkVndvVgLIC9hJG4PgbirUHUsmk12jb+Dw8vDcDawgQd2xMBKevDDhSMFT6YMwF+RNEclMCHiYfltAyD9I4opPzeVho0tJad4UvIn1LDMDem3Uj5Ue1tDDeWzeiuMS8GE3aA92YugPRq7jHh7G3K7KBujqeBRrPFxEV3HHsGnHhidiMX/YRJToD0iu4E4a4bAR86lrD/QHIy9J3NS0w/fG/kFtMIS8/3aO4wl/MKxurPBuwLGbqsn7XV6gffLclrq75UYiBxgSW/obz5vivNM7t0rpOJ5H+jmHJtGkzHNTM0lq/TJryz3J82j27yM4MvANyE3NWzflZLMT1c8fP/1yevrp4+cz/LcWXU4E8v0MLQ0hoBBuI6mhPvs8ni6m0/F4fKg1MpJJ7f3y05mWXYwusUIfzTwpOKYLdzb702kxHR+ypHMzMoLZi0cfdewTIjly0EifmrvIUKBiKHdTif25lXKoGTmSVPGXqhpdIi/1Kz1v8gZOuVXRJPulk0oM8dKyyUdGiqdVX+TDkf4YSzjCzTwxHXf2bLwoYmOdjzAp/jKhQhfI8TzUj8iywRlKTBe9s18ycRl7aCgBydMjX5TksrH0PvUnuYii5/5ZpW5J5yPFj946J5GlZ/9EcxkMKJp4kh1PabA5M8fkv6rIRZX33uJKcp6ZJFWx4sCnaS23oHJk6N7k2D97nPlL0DNpgiJP81mbO4FmHYXFcCofSX1SkPNmjoJ5jypHCge9CGLgBZn7F1vf7589e/ZVYSwjvM5/9iTHKu/Jyjegwptqx8x+tO37x2dEZJ3fCOQ/Kci5tAWrvKfAIilcrneyX4qWnbyn3M++SuSCykfSZzK5EM0jkUgP3Ggq4D1TYShnQxZn3OJ+9qMU0EXwkVNPlaPA0sP0mQchhUyZckTJfsoMCeDP5JlIsJWR4mcFOafxwmgPGQvKUpgaiMKliJKtFm24+I9ajQsREYuqT8ervAf33ACTZsxQe+apQ+nY+HvZOyVbSakiCwfe6ME9YV+WKFzm/lIEeFqFy+AjmTMvlXef3SJL8VT4OEf59cdnP75X5lp791d597YCLUVt4T+c8VN9IoH/pxRJ5TcyNxdYerCVPLAUdZKS/eyWo7jbSlGR4XKxPNZtXEHTPduJoZ7sj3S5rChyWMmoki3RVroCb4DpPqluEp75VbgCfGREYSvQPbGtdDUHlYCJq8vj7E+9gKdUJShUeaHLEg4EQ2IpinT214w3sh7ca/aMoRSxdL/AspHPl/IRZuIaS/Fv4irwjKoW4mylhBdDle4RWnBPBi8AgyaubEi0fIPLUWVk5MgLHHNE7tGSC0eo8CYux5R7+KbSOW88ajjcpyDiFzxJxzPfJCauOEhVXyH70fiIV/FZsED8lp82uOObTY2JO+Ctjhc40DNLcVVNam7y7BUc+6aql4LAWze7N7e5aDSay910WnpwQnuzm9tFQ6fQfwi+Cpwz8nx34M7JY99U9MKz1cTuVBRIbleLfkOwwdip3b09BbcUVroB9/DN7Nm7qChTuzpT2ePPkYgqkHPeaYWVe4JHOHC59vkSLeOjl8vtCyTtsqV1lbknOrdU22gwFmvsxYH7FGSFlfuCO5lKTOWb2c9tfOx29N3leQ3J/rcPlGdqTwZvUex2+8Pl/vnq+f632zLd+k4mL/QR3JDBsx8v8IFz+ybbrnZQLhNyaVraJZS5yxobe5nD6O3vEnnv4FwYF3Lx7GfC/Q2NDjuCcO7aKvJbYiRXYTAYffxGyN+J5MA7Y4V+g2e/YO7oKsSmOPuEnAsuiT3MvVsTBhvGKrkOYsYCw0qv4FKmckZMoiZgE5xzfEo5QJ7oYO5bUx5s1IiHCv04DryrcKgHzx4i8LaKG43cx+TAQYlj5hTcmBxfnzJf73PlW5/Bq4jtYh9aN6Q5KHMqx47JnST8iK9PmTeW/oJzNo4VXv4OHQ2HFvYXnml2ocLbl9rB3/G141TONVf6C44t/MLRoWGsb4dCy3UGgx3UUTn2zBzgnj0JheaqzsY1pPI212KBGu/OxvOaqJL9CYExhRtzodDYWChUZd9EgZVjhTOrMqbp4EmHHKv8Vgve25QvTEBZZMSMxZhFJEhCi4zuW9mxlRaymwvHM41Ja/C2/RW5PJytAPAuJ6BRHfgH6G3GJmUZC205X50zW0GWUuaujjV4yQY3MTiMiHAC6hU8zIFPYOdzIMOLNsss+w4Z7hTV+A0CZ65p7NiD553ByJbKH/sL7mQNYS47PGtHy+8ULK/Yd3h+6tgab58rNM7O8g6FKJglwlylu7SWVUBhrpDA4IeMZcVmYXOM8cHxzl0efNYeXHHAkceUDzXgXRYSsHQDM5AAXhkjMKF1EPPeOeCCxo23dPAK+wqDw+x2uHfwDVhzsniIwjgwlbBR3wkhAdxU4x3bxgE4Os1NPHgefCNqHIJ3V3OyGYiv8idy3JSC1FivVrnUz8ApSMsxFS45MCrVKjfr42kYTPpczdldlc/PQMw7syi9bvOgBv+niaJKzkkNywdcgiUOxjPUZyV4rMu+ilAtO95JJqBVZWposZA535o5Uey8dRuL4/gF6PHLBdA91iNELPCC0sjxlC9oUYC5YzMnnvIv1AkwO8kyqMRl37xHr7lhPf/KeSfrwZ3hY4nFD1TihWPixMjBDCQP/oBdXWPiefrg7T2W2zYLzWQzLzQPma3clXmPE1hIQm6ntaT+UZYRZOzqBT/jC4XbaKN5/0edm6NcZwXYCq44y2ENDMlUQQmUk9xTUHg0xwxF6Kp0ubZ5lDdyEFe+40lDDWOEcU3vKJwm5BcaXzau2nxM+QGutyuNdrmAosSMnL8/m622+bIGoBjvkA6nOqBBQZpBSv8khlL+oM6w8O3CLlcJNcFtN3IgZ/+kHXRxKTuoEX6HJ59b2FjBKXk5pyAn6W+0XdVMm93edENUYPEEWR3EEq3sIQ6/h4KdG0btFieGQtN2j3QNz6W+ymVb7E5M9MVSOFsRlwdlv+OYmDs3YJVsXpLuYU5sNt+Q/slhDY41Vj8Qbm4d4jCUHtaTFYRbtLDXnCU2AZuHtYMo6WTeyk1yQl5uH67aY83z7xdliZtzzY0elgiFR13u5me/kTZc+2L37uDy8uAud0GbxwpuRD5F0cvvDi6vvh1+oF3pcpvvYnG3UfK9LLAtiesnYHufVPu06Y2Fft7tqO8gWo1mPLZtj21/ONO2gnpaZyOsbRKsHN+SuIU3RzD23pD2zueNMDYaFVesDPMK724FgiVg2qeBhbuhn/0U79zsTuVyuehU7nZ3z+Pe2w1gn7q5Ee/lcwov9LjUE037vMq5WypsBRw2Bndqa9DNze7e7s0NHpyquii81Ovi2rywnowzluzPvhchKEQA5ybNnhbvySoXF2H3Bh7n28uihff6HBNUuWgs/QQXl2P1/HxHEz5pEBMm/o89gCda0F0m+q1weQU5BPe9lswLnF9F1vPqcSL8mv1YEjx32ht4R50V0q54Px5hakD/xMLA/a/Jcgfndo8NpT/Po+bFR1Ad8C/+F6y4gfPcyDP79ICh8OgVI1eBJ9QXQc4EGDh/PXGJ3K9HOhv8w26MXF4ilOjMpOXFtfHEqUSeeG+B87vun6FgyXMPAzFy1dom0/wqfps6NWekCxG3Vu0LDy+V+hDCmSQjopkP68BTqM45zsD4nskcG8aVFPHjdImqwN3o30ORRJryM/ka8PSMYRrmWjFDbSOeTi+gv40jyX7i5HEgxcNi/X3auiE56DCK52fyzJm5NkwzbNSuj1KpVDHx9crEf9cUA3FvWTBA/PhPv5/ML41Kr1WZ+OFMDhbxNSNsYnQDL79BBSn6wzRq8qXJ/JwVH7aO9fWBZVvyCvIJxVLPv/y1QmARfDhMPxiVv8njMj+/kJ6d7atj2oLfmSG9eEFRYbZCr02L3BKj/tt/ScOG0h9fyNz9fLTdERRaRPIXqtL4JLRdN8IOdthYCoV+l4elvgyIm75WgLeWF6eKJzl+x3enKngDEtcq0+jvvyvA6zL3Q736E+ucI3/xSZGQ/50sM5h7OVmv1JfW3+BVB78pCtJ4ZWDclBxGxRfyvILkv/G9zJAt+LPCUhItiD2cfxC/BOT822FefFSlVH+xbh8zUfQtEh3mm7FC/sFflYVjS569YORcmQv+zpOH/lCMAeAP9EYYUTbgG6c0CfmfkDz0P6ohDniMvGtqEO/gw/fkbEOvq8Fb/xsC3MpWUfz9C9tMRgf1Gjv80kDrXYf1ogoKyR+/0TVMod/+ULe4KHhseEBvgqMS3iBKj7mAD7X+8edvoZM//6HrJ8ZPX9hvmRzkW0mbEfqmRj04Qm+1XNbwI3D6DrgBv9eTKD2/4QbuLshUsFMO5lWHnJC3kf6z6zI/8yt+2CiI16gSJ+0ePP1/o4G9uBahdw+e+mckyBc0Kyobn5L5NdC3wK92DZ4YCpJb0XXwLalV790/mJjSTWT/0roLEPwg6vmQm1Z22+eBce+Xc3tdKzyH14IEIuGDci530z34VHQqCDM393ejuVzutgfwqWj5bsDmUtu/m8LYuZzuoTxvmcISbecO92um9xH7AX11d1uOTuUs6Ro8N0XRo+V29MPlAMy9tn+Yw88VkoPKi2p8yy1dRFFul3PvrlYH5Ke186tvh98Pv+1fKVen+JBEC126g8PDg6vzYGIL6x/fbw6Nfw0EF4jdPcxcK9+ropPMQtDg9q2GtHyXx03Sx0GD223PxL8pOL5N6AfYzm1SM0GDr1ng732Bt+x3DgWa1ELw+OmqDe7yIo1Ex07ggwdfoCTxcQdc8e6ShIWbeH9sjSoGlBnqwRNHclWUOHJGzTwa8CtKEl9zwK/lm8jjVlGNRllFajpwcOvaZxYsXca/LqjA7VF2WyAzmIzQB/i1Db6mAjfpd5krk/bsEkOPBvxqxj4DFbiRsEYZFngn8H9bz+JNHzsflOD0FjSaL62wfxQ0tzGT4sHjavCODU4/xE+D5rZ7WQ54a1UJfmSDf41TTwia2+4eplbph4QGnKY06Rlrps0ED26FiVSNRjwd+LgNTn8NPh03TGohRdMdnH6JwK8fDTgNE0WriNOBX9ngNHymr4LmNkwS6HDt6w6etsCpDwdfR1hFJ4rLZoKC15TgxzY4jULpwOsIgwY6hGYQxkTHcMATLQY+w4MHn45btRsOb8Rm4u8dcFbNIXBH0TUShVKBJ4eWqWSurQ9OAMEnY6Yc8JoNbj4WcIvo2LIZFOfsfBxRWk0XCG444wMW+n7d4qptM1d2voi1apXGGDxjm/YRjULBqrx23CJoibhhgSNVWuDITe17WwjcJDU0Br+mE1VxLTD/rF0dpdLUFlL4ypP0CRmDXcyNO6kj/tixwa0cYSieSiwEwL660LKph+LFcfyVjeZUFAiSgZPTIlFwpmg3vzKpzNpAA7p51Sn+q5iiUkwdEU+j1Rkqgu2KYsY+GQJOYk2GzPSrp4mitXWx+K/0wiDNPWyatdoqEftGyFrGMmwLnDQgxp0kllhNYohC4q3J5jUiAwSXpEb/KYn0tV2F0nKYeicGp96ZGDoOPoI7Ys4sHNF/BijeMm1YNIUatndiUzGuaKGRTo/PBF4oG2Zt9Xi8k07R5fmJdAer06pxSMZNQwgtjcctp4ynWmvHq7XVwBoU5szaUadz1LG9NN65Iiy0oLf6yLTWpDP88VHc9ud4q9PpjAeUItYs10JuNjMzs2r7mBXGrVYVTVwSR/QvszYzQ8fS7QLvCgG5pqHbroZpMjgU7zyCPNZFagvWg1eJtK3MNeuL4tHVI4onUMIzCy37IZpEkZlvx07P08XO9aPT++r1UdGKLThsDEHAcft08ByfGn88gbyGojiijmPJpNOp1KmQbNfWhoqpdIaOSBeLKBoGH8lRpBgfX8Myjv+7cDWjtIbazPE1GWKNDb6OeJIneZIneZIneRIs1Zcry5uvX29Or09WfG1gbs1Pby5uTk8q9jW78nw7NLa4s+x3Z5UlvAWSneXZ+j2ot6ZDUHZmPSuVpefO6Nc8W5XfV+i1584q8yfcFifz/s7WePk2JMm027bmPI8Gfnq1I+8rtOK2s8qyYotlH+iTJ4oNQ/j1rjqZFYe+sn+pq7Ddd7ai2WLeA9uc02yIFKk2NvoiWk5WrJ/WtfsKbapVWNVoDcmiq63X9Rsi2VJssbUtj5umP6muuSPbVcXOpGvHicLtnRN23VC16ZJq2Cz+xZSvhNfO5j22eNktt3wwJXeI1GU682YiXkAv7lBoSc1d99wwFOINTX2mxAj0vqLb2UsfW6jsywi72rcli3ALU2HfoecEx8UvNTvzvtxIxlRzgDBRhJ7Pv9x6tT49xn+7ArYQtLo9vf7Smhkrwr525l9Vq1uzorvCnS3yP72eX8JbiFBzMvcWN+CEzW9bvLWy6zvJfb8MLzzvmGDmW+L52Da8gU+zH7b4fcmR7TV3KO4nzvqeO19D0+KjLKcEIWRzRrRpf8tdIiFkcxGAMy/pV/G0OLetKrbY5MfDa7Qi7Is/K3tncMKUzKECL5MYWeCx5DkKki9b34FLtKMfLXHzbmjtzHTjRj+Di/tavzPlBMl+tjwb0gm+DjxKQcFfK/oNMMa3qi3gwfiQCHxDoSMeZlLcQpzRQJRUpyRv2AB65VlSrA7V0DN4Pnbdx5Qbwos5LWwh6gioR5MF1oWdmSzmKi+RAZXBHa7ieSyQMlHH1m8BrrsujWYqJxjAUNUK51QOXXDL+1iT/JCqekdYmFW90ewLnhv+k2WF27otgGqhZbLz2dFtGeZJmYOdiCPZhDqr21md3xnzl2XdFsBW4CTDwKe1W7KQVOW22BQHssiqik9EQJaDxzAz1JdGTB3w5NjV1ZdIbOrFYYXNGJI7MbfVFy2L3M58XCONAbJv9afM1LLEgUtXl4HrPK038OfgW4ah1ziLBB7g/KVRy1tuDNOJ/vBsDNQ4s1i9d7BjvXIH96E/ECOwFvw4545yDItHUvZlC4gqvI1Lx2IXVTebwNj60vAVDsHh4dTpEpUVx8KBwEVJDENZsGABFcWsv8OD/Abmh+DSqVMV7lge4ABDU5fDZHCWP/y05vCgnOCmyB3N96pTI6Yy73IolnmcqG/Ewux71tfhwfV+zv0AUgG1YcL68pUHOMgk5R8NoS6eFQ4vzWdYYELOVxJQoapQzvWYvMBhjaMwlgrXHFgXD6+yVZAHi34zJ+6LE77x4wVuwHavRG7y9TI9GKz/5VgO4cTz4i6f6G9Cj8kTnKuuBY660Iyh4FxVO8d7RoVrM0g+wDVJTqCetrgGgB9wTuWht2ACrYiNEvvyct+PgZnL5BvPsiGJPZzpV/jcKlvrQqcm5B1VpLbU4jxpFNWXFI05C9zkv91eoVu8EnpIUg5t+Ovd+QXX9ue14Jr+qSjKtM21n31PcB/NWgHc17lqclevjvZ9wMOiY+iEmbN3g1c3q4d9kvsBN0yf5MAP33gM1RzJ30ljwVGFzXU6NZjPXXahBPcwVn2NY/jsa+Mki/mSfn9S6FMJN0G53QRyuQWERXuHDwhOPdmMoa2I0Qwgh1IqwIz41KOuu0xvvO90LqmOtr1uOkZL0yB7lLLXx1Soumnxpi6UU1AmVYff8VC3va1o6ptLeBK2pqgTeu72HOOicCzmS+ESbq/gC8bXnMLhRSed8zgGPNzW/I6VVb9efmlfJWJGK3Z2VsVXYEdfyDtSmZ2zON/OrVvj3cDRFi+n39LDjy2uTN57yXOlXq9XxK/gXqSf3XdWAdtuu4Jbe7/P/gckIDHycckGKrPLy9obwVwS9riUSmugRS0UmC4GieUpdpA/0fkVi+Pa7nAg4uQ8mo4QKEq91qEMVhiX2s7BHPO4fDPkDgZyKW3LLRiBJafsoLD0ds34Bi9cV0Ccr7lK5zE9CGSIle80N9tyxcrjck1DSuvn7R6ssAjxkVk4FjE3XVxemV+ZE3Ncf8nqQMXPMilt0ReoTHpzK/uywYtn9fq4JnsgHuTPvfcQlLhay6O0b1sq+o6BZunjo5HZMSX2yiObMBVirsuL0V3Xoj8iqXKNtbmlx69tRyqz83M7Ozuby/P3bzU8yZM8yb+b/D+mE10maL3vWwAAAABJRU5ErkJggg==;" parent="1" vertex="1">
          <mxGeometry x="611.39" y="643.66" width="53.72" height="80" as="geometry" />
        </mxCell>
        <mxCell id="04ijFvJ8HovLDQiNbfhL-26" value="" style="shape=image;imageAspect=0;aspect=fixed;verticalLabelPosition=bottom;verticalAlign=top;rounded=0;shadow=0;glass=0;fontColor=#000000;fillColor=#FFB570;image=data:image/png,iVBORw0KGgoAAAANSUhEUgAAALgAAAESCAMAAAB5He/JAAABVlBMVEX////+cz4AAADi9fzN7Pb+/v7+azy10vP+YUKy0PPk9/wHCQn+bzf9/Pv+p3f+cTv3+v7+aCn+bDD+bTPL8Pv+m3z+aEvS7vfHx8e61fTf8vv+ZEb+ZybG3vb+Wznv7++AgIDY2Nj/1sn/7OaysrLm5uZoaGiXl5fU6fnt9Pz+d0T+VzT+r5UyMjLBwcF4eHiOjo7/4dj+pIehoaHP5fhdXV3g+/+0tLRSUlLExMQ8PDzS0tIaGhpgYGBISEgpKSn+c07+dlD+yMD+opT+jXr+mIf+h1z+yLYiIiL2jWz+jV/+oHHS4+r+1M7/UyrhxMP+sKT+f2j+u6f+u6T+fU3stabyoojmvLHfzMjsqpv+lmnyln7uoI7+cEf+elz+r6P+kX/5gW3ibUA2RkqPdW0KFxlcJg+HTDbDYj41JR+0YkRQLyN8TDtmOyugWD7GxtvQvsn+XQrE+1qbAAAY30lEQVR4nO2d+VfbWLKAhWljY6x4xWDjBWMMXtghCQmEsIQtDTQBZ+l0Q8jM9Ot53e/NvPn/f3l3kXTrbpKwjcWcoc7MaWNfSZ9KVXWrSleKYTzJkzzJf44kk83GxkaJykaj0UyGg0byknCyuVHKj9oScT7kSwg/aDqdJBslh1TgjpCP+Y1m0IyyNDfyjnKxeRRsaTSQ0eQxOf7/I2NvbhCNRhBxIebIMBLnjwLij5CLkG88EpsJN4iuS5R5WCf4xwa+LIi99AjUntyg1G7MEL6A2LHaC8FiN/PE54b9UDvwhRJWe5DoBLtUuAe1hT5M1J4PyGAwduReyobsDYxeCsBNkyWs7eFuqG10HIk2Bs3doEbSLTZBH96IDNpesJXkG10ZCYeO3DQySKUTdfeMTdAbWOkDsvQkVndvVgLIC9hJG4PgbirUHUsmk12jb+Dw8vDcDawgQd2xMBKevDDhSMFT6YMwF+RNEclMCHiYfltAyD9I4opPzeVho0tJad4UvIn1LDMDem3Uj5Ue1tDDeWzeiuMS8GE3aA92YugPRq7jHh7G3K7KBujqeBRrPFxEV3HHsGnHhidiMX/YRJToD0iu4E4a4bAR86lrD/QHIy9J3NS0w/fG/kFtMIS8/3aO4wl/MKxurPBuwLGbqsn7XV6gffLclrq75UYiBxgSW/obz5vivNM7t0rpOJ5H+jmHJtGkzHNTM0lq/TJryz3J82j27yM4MvANyE3NWzflZLMT1c8fP/1yevrp4+cz/LcWXU4E8v0MLQ0hoBBuI6mhPvs8ni6m0/F4fKg1MpJJ7f3y05mWXYwusUIfzTwpOKYLdzb702kxHR+ypHMzMoLZi0cfdewTIjly0EifmrvIUKBiKHdTif25lXKoGTmSVPGXqhpdIi/1Kz1v8gZOuVXRJPulk0oM8dKyyUdGiqdVX+TDkf4YSzjCzTwxHXf2bLwoYmOdjzAp/jKhQhfI8TzUj8iywRlKTBe9s18ycRl7aCgBydMjX5TksrH0PvUnuYii5/5ZpW5J5yPFj946J5GlZ/9EcxkMKJp4kh1PabA5M8fkv6rIRZX33uJKcp6ZJFWx4sCnaS23oHJk6N7k2D97nPlL0DNpgiJP81mbO4FmHYXFcCofSX1SkPNmjoJ5jypHCge9CGLgBZn7F1vf7589e/ZVYSwjvM5/9iTHKu/Jyjegwptqx8x+tO37x2dEZJ3fCOQ/Kci5tAWrvKfAIilcrneyX4qWnbyn3M++SuSCykfSZzK5EM0jkUgP3Ggq4D1TYShnQxZn3OJ+9qMU0EXwkVNPlaPA0sP0mQchhUyZckTJfsoMCeDP5JlIsJWR4mcFOafxwmgPGQvKUpgaiMKliJKtFm24+I9ajQsREYuqT8ervAf33ACTZsxQe+apQ+nY+HvZOyVbSakiCwfe6ME9YV+WKFzm/lIEeFqFy+AjmTMvlXef3SJL8VT4OEf59cdnP75X5lp791d597YCLUVt4T+c8VN9IoH/pxRJ5TcyNxdYerCVPLAUdZKS/eyWo7jbSlGR4XKxPNZtXEHTPduJoZ7sj3S5rChyWMmoki3RVroCb4DpPqluEp75VbgCfGREYSvQPbGtdDUHlYCJq8vj7E+9gKdUJShUeaHLEg4EQ2IpinT214w3sh7ca/aMoRSxdL/AspHPl/IRZuIaS/Fv4irwjKoW4mylhBdDle4RWnBPBi8AgyaubEi0fIPLUWVk5MgLHHNE7tGSC0eo8CYux5R7+KbSOW88ajjcpyDiFzxJxzPfJCauOEhVXyH70fiIV/FZsED8lp82uOObTY2JO+Ctjhc40DNLcVVNam7y7BUc+6aql4LAWze7N7e5aDSay910WnpwQnuzm9tFQ6fQfwi+Cpwz8nx34M7JY99U9MKz1cTuVBRIbleLfkOwwdip3b09BbcUVroB9/DN7Nm7qChTuzpT2ePPkYgqkHPeaYWVe4JHOHC59vkSLeOjl8vtCyTtsqV1lbknOrdU22gwFmvsxYH7FGSFlfuCO5lKTOWb2c9tfOx29N3leQ3J/rcPlGdqTwZvUex2+8Pl/vnq+f632zLd+k4mL/QR3JDBsx8v8IFz+ybbrnZQLhNyaVraJZS5yxobe5nD6O3vEnnv4FwYF3Lx7GfC/Q2NDjuCcO7aKvJbYiRXYTAYffxGyN+J5MA7Y4V+g2e/YO7oKsSmOPuEnAsuiT3MvVsTBhvGKrkOYsYCw0qv4FKmckZMoiZgE5xzfEo5QJ7oYO5bUx5s1IiHCv04DryrcKgHzx4i8LaKG43cx+TAQYlj5hTcmBxfnzJf73PlW5/Bq4jtYh9aN6Q5KHMqx47JnST8iK9PmTeW/oJzNo4VXv4OHQ2HFvYXnml2ocLbl9rB3/G141TONVf6C44t/MLRoWGsb4dCy3UGgx3UUTn2zBzgnj0JheaqzsY1pPI212KBGu/OxvOaqJL9CYExhRtzodDYWChUZd9EgZVjhTOrMqbp4EmHHKv8Vgve25QvTEBZZMSMxZhFJEhCi4zuW9mxlRaymwvHM41Ja/C2/RW5PJytAPAuJ6BRHfgH6G3GJmUZC205X50zW0GWUuaujjV4yQY3MTiMiHAC6hU8zIFPYOdzIMOLNsss+w4Z7hTV+A0CZ65p7NiD553ByJbKH/sL7mQNYS47PGtHy+8ULK/Yd3h+6tgab58rNM7O8g6FKJglwlylu7SWVUBhrpDA4IeMZcVmYXOM8cHxzl0efNYeXHHAkceUDzXgXRYSsHQDM5AAXhkjMKF1EPPeOeCCxo23dPAK+wqDw+x2uHfwDVhzsniIwjgwlbBR3wkhAdxU4x3bxgE4Os1NPHgefCNqHIJ3V3OyGYiv8idy3JSC1FivVrnUz8ApSMsxFS45MCrVKjfr42kYTPpczdldlc/PQMw7syi9bvOgBv+niaJKzkkNywdcgiUOxjPUZyV4rMu+ilAtO95JJqBVZWposZA535o5Uey8dRuL4/gF6PHLBdA91iNELPCC0sjxlC9oUYC5YzMnnvIv1AkwO8kyqMRl37xHr7lhPf/KeSfrwZ3hY4nFD1TihWPixMjBDCQP/oBdXWPiefrg7T2W2zYLzWQzLzQPma3clXmPE1hIQm6ntaT+UZYRZOzqBT/jC4XbaKN5/0edm6NcZwXYCq44y2ENDMlUQQmUk9xTUHg0xwxF6Kp0ubZ5lDdyEFe+40lDDWOEcU3vKJwm5BcaXzau2nxM+QGutyuNdrmAosSMnL8/m622+bIGoBjvkA6nOqBBQZpBSv8khlL+oM6w8O3CLlcJNcFtN3IgZ/+kHXRxKTuoEX6HJ59b2FjBKXk5pyAn6W+0XdVMm93edENUYPEEWR3EEq3sIQ6/h4KdG0btFieGQtN2j3QNz6W+ymVb7E5M9MVSOFsRlwdlv+OYmDs3YJVsXpLuYU5sNt+Q/slhDY41Vj8Qbm4d4jCUHtaTFYRbtLDXnCU2AZuHtYMo6WTeyk1yQl5uH67aY83z7xdliZtzzY0elgiFR13u5me/kTZc+2L37uDy8uAud0GbxwpuRD5F0cvvDi6vvh1+oF3pcpvvYnG3UfK9LLAtiesnYHufVPu06Y2Fft7tqO8gWo1mPLZtj21/ONO2gnpaZyOsbRKsHN+SuIU3RzD23pD2zueNMDYaFVesDPMK724FgiVg2qeBhbuhn/0U79zsTuVyuehU7nZ3z+Pe2w1gn7q5Ee/lcwov9LjUE037vMq5WypsBRw2Bndqa9DNze7e7s0NHpyquii81Ovi2rywnowzluzPvhchKEQA5ybNnhbvySoXF2H3Bh7n28uihff6HBNUuWgs/QQXl2P1/HxHEz5pEBMm/o89gCda0F0m+q1weQU5BPe9lswLnF9F1vPqcSL8mv1YEjx32ht4R50V0q54Px5hakD/xMLA/a/Jcgfndo8NpT/Po+bFR1Ad8C/+F6y4gfPcyDP79ICh8OgVI1eBJ9QXQc4EGDh/PXGJ3K9HOhv8w26MXF4ilOjMpOXFtfHEqUSeeG+B87vun6FgyXMPAzFy1dom0/wqfps6NWekCxG3Vu0LDy+V+hDCmSQjopkP68BTqM45zsD4nskcG8aVFPHjdImqwN3o30ORRJryM/ka8PSMYRrmWjFDbSOeTi+gv40jyX7i5HEgxcNi/X3auiE56DCK52fyzJm5NkwzbNSuj1KpVDHx9crEf9cUA3FvWTBA/PhPv5/ML41Kr1WZ+OFMDhbxNSNsYnQDL79BBSn6wzRq8qXJ/JwVH7aO9fWBZVvyCvIJxVLPv/y1QmARfDhMPxiVv8njMj+/kJ6d7atj2oLfmSG9eEFRYbZCr02L3BKj/tt/ScOG0h9fyNz9fLTdERRaRPIXqtL4JLRdN8IOdthYCoV+l4elvgyIm75WgLeWF6eKJzl+x3enKngDEtcq0+jvvyvA6zL3Q736E+ucI3/xSZGQ/50sM5h7OVmv1JfW3+BVB78pCtJ4ZWDclBxGxRfyvILkv/G9zJAt+LPCUhItiD2cfxC/BOT822FefFSlVH+xbh8zUfQtEh3mm7FC/sFflYVjS569YORcmQv+zpOH/lCMAeAP9EYYUTbgG6c0CfmfkDz0P6ohDniMvGtqEO/gw/fkbEOvq8Fb/xsC3MpWUfz9C9tMRgf1Gjv80kDrXYf1ogoKyR+/0TVMod/+ULe4KHhseEBvgqMS3iBKj7mAD7X+8edvoZM//6HrJ8ZPX9hvmRzkW0mbEfqmRj04Qm+1XNbwI3D6DrgBv9eTKD2/4QbuLshUsFMO5lWHnJC3kf6z6zI/8yt+2CiI16gSJ+0ePP1/o4G9uBahdw+e+mckyBc0Kyobn5L5NdC3wK92DZ4YCpJb0XXwLalV790/mJjSTWT/0roLEPwg6vmQm1Z22+eBce+Xc3tdKzyH14IEIuGDci530z34VHQqCDM393ejuVzutgfwqWj5bsDmUtu/m8LYuZzuoTxvmcISbecO92um9xH7AX11d1uOTuUs6Ro8N0XRo+V29MPlAMy9tn+Yw88VkoPKi2p8yy1dRFFul3PvrlYH5Ke186tvh98Pv+1fKVen+JBEC126g8PDg6vzYGIL6x/fbw6Nfw0EF4jdPcxcK9+ropPMQtDg9q2GtHyXx03Sx0GD223PxL8pOL5N6AfYzm1SM0GDr1ng732Bt+x3DgWa1ELw+OmqDe7yIo1Ex07ggwdfoCTxcQdc8e6ShIWbeH9sjSoGlBnqwRNHclWUOHJGzTwa8CtKEl9zwK/lm8jjVlGNRllFajpwcOvaZxYsXca/LqjA7VF2WyAzmIzQB/i1Db6mAjfpd5krk/bsEkOPBvxqxj4DFbiRsEYZFngn8H9bz+JNHzsflOD0FjSaL62wfxQ0tzGT4sHjavCODU4/xE+D5rZ7WQ54a1UJfmSDf41TTwia2+4eplbph4QGnKY06Rlrps0ED26FiVSNRjwd+LgNTn8NPh03TGohRdMdnH6JwK8fDTgNE0WriNOBX9ngNHymr4LmNkwS6HDt6w6etsCpDwdfR1hFJ4rLZoKC15TgxzY4jULpwOsIgwY6hGYQxkTHcMATLQY+w4MHn45btRsOb8Rm4u8dcFbNIXBH0TUShVKBJ4eWqWSurQ9OAMEnY6Yc8JoNbj4WcIvo2LIZFOfsfBxRWk0XCG444wMW+n7d4qptM1d2voi1apXGGDxjm/YRjULBqrx23CJoibhhgSNVWuDITe17WwjcJDU0Br+mE1VxLTD/rF0dpdLUFlL4ypP0CRmDXcyNO6kj/tixwa0cYSieSiwEwL660LKph+LFcfyVjeZUFAiSgZPTIlFwpmg3vzKpzNpAA7p51Sn+q5iiUkwdEU+j1Rkqgu2KYsY+GQJOYk2GzPSrp4mitXWx+K/0wiDNPWyatdoqEftGyFrGMmwLnDQgxp0kllhNYohC4q3J5jUiAwSXpEb/KYn0tV2F0nKYeicGp96ZGDoOPoI7Ys4sHNF/BijeMm1YNIUatndiUzGuaKGRTo/PBF4oG2Zt9Xi8k07R5fmJdAer06pxSMZNQwgtjcctp4ynWmvHq7XVwBoU5szaUadz1LG9NN65Iiy0oLf6yLTWpDP88VHc9ud4q9PpjAeUItYs10JuNjMzs2r7mBXGrVYVTVwSR/QvszYzQ8fS7QLvCgG5pqHbroZpMjgU7zyCPNZFagvWg1eJtK3MNeuL4tHVI4onUMIzCy37IZpEkZlvx07P08XO9aPT++r1UdGKLThsDEHAcft08ByfGn88gbyGojiijmPJpNOp1KmQbNfWhoqpdIaOSBeLKBoGH8lRpBgfX8Myjv+7cDWjtIbazPE1GWKNDb6OeJIneZIneZIneRIs1Zcry5uvX29Or09WfG1gbs1Pby5uTk8q9jW78nw7NLa4s+x3Z5UlvAWSneXZ+j2ot6ZDUHZmPSuVpefO6Nc8W5XfV+i1584q8yfcFifz/s7WePk2JMm027bmPI8Gfnq1I+8rtOK2s8qyYotlH+iTJ4oNQ/j1rjqZFYe+sn+pq7Ddd7ai2WLeA9uc02yIFKk2NvoiWk5WrJ/WtfsKbapVWNVoDcmiq63X9Rsi2VJssbUtj5umP6muuSPbVcXOpGvHicLtnRN23VC16ZJq2Cz+xZSvhNfO5j22eNktt3wwJXeI1GU682YiXkAv7lBoSc1d99wwFOINTX2mxAj0vqLb2UsfW6jsywi72rcli3ALU2HfoecEx8UvNTvzvtxIxlRzgDBRhJ7Pv9x6tT49xn+7ArYQtLo9vf7Smhkrwr525l9Vq1uzorvCnS3yP72eX8JbiFBzMvcWN+CEzW9bvLWy6zvJfb8MLzzvmGDmW+L52Da8gU+zH7b4fcmR7TV3KO4nzvqeO19D0+KjLKcEIWRzRrRpf8tdIiFkcxGAMy/pV/G0OLetKrbY5MfDa7Qi7Is/K3tncMKUzKECL5MYWeCx5DkKki9b34FLtKMfLXHzbmjtzHTjRj+Di/tavzPlBMl+tjwb0gm+DjxKQcFfK/oNMMa3qi3gwfiQCHxDoSMeZlLcQpzRQJRUpyRv2AB65VlSrA7V0DN4Pnbdx5Qbwos5LWwh6gioR5MF1oWdmSzmKi+RAZXBHa7ieSyQMlHH1m8BrrsujWYqJxjAUNUK51QOXXDL+1iT/JCqekdYmFW90ewLnhv+k2WF27otgGqhZbLz2dFtGeZJmYOdiCPZhDqr21md3xnzl2XdFsBW4CTDwKe1W7KQVOW22BQHssiqik9EQJaDxzAz1JdGTB3w5NjV1ZdIbOrFYYXNGJI7MbfVFy2L3M58XCONAbJv9afM1LLEgUtXl4HrPK038OfgW4ah1ziLBB7g/KVRy1tuDNOJ/vBsDNQ4s1i9d7BjvXIH96E/ECOwFvw4545yDItHUvZlC4gqvI1Lx2IXVTebwNj60vAVDsHh4dTpEpUVx8KBwEVJDENZsGABFcWsv8OD/Abmh+DSqVMV7lge4ABDU5fDZHCWP/y05vCgnOCmyB3N96pTI6Yy73IolnmcqG/Ewux71tfhwfV+zv0AUgG1YcL68pUHOMgk5R8NoS6eFQ4vzWdYYELOVxJQoapQzvWYvMBhjaMwlgrXHFgXD6+yVZAHi34zJ+6LE77x4wVuwHavRG7y9TI9GKz/5VgO4cTz4i6f6G9Cj8kTnKuuBY660Iyh4FxVO8d7RoVrM0g+wDVJTqCetrgGgB9wTuWht2ACrYiNEvvyct+PgZnL5BvPsiGJPZzpV/jcKlvrQqcm5B1VpLbU4jxpFNWXFI05C9zkv91eoVu8EnpIUg5t+Ovd+QXX9ue14Jr+qSjKtM21n31PcB/NWgHc17lqclevjvZ9wMOiY+iEmbN3g1c3q4d9kvsBN0yf5MAP33gM1RzJ30ljwVGFzXU6NZjPXXahBPcwVn2NY/jsa+Mki/mSfn9S6FMJN0G53QRyuQWERXuHDwhOPdmMoa2I0Qwgh1IqwIz41KOuu0xvvO90LqmOtr1uOkZL0yB7lLLXx1Soumnxpi6UU1AmVYff8VC3va1o6ptLeBK2pqgTeu72HOOicCzmS+ESbq/gC8bXnMLhRSed8zgGPNzW/I6VVb9efmlfJWJGK3Z2VsVXYEdfyDtSmZ2zON/OrVvj3cDRFi+n39LDjy2uTN57yXOlXq9XxK/gXqSf3XdWAdtuu4Jbe7/P/gckIDHycckGKrPLy9obwVwS9riUSmugRS0UmC4GieUpdpA/0fkVi+Pa7nAg4uQ8mo4QKEq91qEMVhiX2s7BHPO4fDPkDgZyKW3LLRiBJafsoLD0ds34Bi9cV0Ccr7lK5zE9CGSIle80N9tyxcrjck1DSuvn7R6ssAjxkVk4FjE3XVxemV+ZE3Ncf8nqQMXPMilt0ReoTHpzK/uywYtn9fq4JnsgHuTPvfcQlLhay6O0b1sq+o6BZunjo5HZMSX2yiObMBVirsuL0V3Xoj8iqXKNtbmlx69tRyqz83M7Ozuby/P3bzU8yZM8yb+b/D+mE10maL3vWwAAAABJRU5ErkJggg==;" parent="1" vertex="1">
          <mxGeometry x="573.7199999999999" y="720" width="53.72" height="80" as="geometry" />
        </mxCell>
        <mxCell id="04ijFvJ8HovLDQiNbfhL-33" value="Argo Work flows for respective Stream" style="rounded=0;whiteSpace=wrap;html=1;shadow=0;glass=0;fontColor=#000000;fillColor=#E6D0DE;strokeColor=#FF3333;verticalAlign=bottom;gradientColor=none;opacity=30;" parent="1" vertex="1">
          <mxGeometry x="463.83" y="465" width="266.17" height="405" as="geometry" />
        </mxCell>
        <mxCell id="04ijFvJ8HovLDQiNbfhL-36" value="Amazon EKS" style="sketch=0;outlineConnect=0;fontColor=#232F3E;gradientColor=none;strokeColor=#ffffff;fillColor=#232F3E;dashed=0;verticalLabelPosition=middle;verticalAlign=bottom;align=center;html=1;whiteSpace=wrap;fontSize=10;fontStyle=1;spacing=3;shape=mxgraph.aws4.productIcon;prIcon=mxgraph.aws4.eks;rounded=0;shadow=0;glass=0;opacity=30;" parent="1" vertex="1">
          <mxGeometry x="720" y="900" width="80" height="100" as="geometry" />
        </mxCell>
        <mxCell id="04ijFvJ8HovLDQiNbfhL-40" style="edgeStyle=orthogonalEdgeStyle;rounded=0;orthogonalLoop=1;jettySize=auto;html=1;exitX=1;exitY=0.5;exitDx=0;exitDy=0;exitPerimeter=0;entryX=0;entryY=0.5;entryDx=0;entryDy=0;fontColor=#000000;" parent="1" source="04ijFvJ8HovLDQiNbfhL-38" target="04ijFvJ8HovLDQiNbfhL-22" edge="1">
          <mxGeometry relative="1" as="geometry" />
        </mxCell>
        <mxCell id="04ijFvJ8HovLDQiNbfhL-38" value="Argo Event Source For SQS - Queue 2" style="sketch=0;points=[[0,0,0],[0.25,0,0],[0.5,0,0],[0.75,0,0],[1,0,0],[0,1,0],[0.25,1,0],[0.5,1,0],[0.75,1,0],[1,1,0],[0,0.25,0],[0,0.5,0],[0,0.75,0],[1,0.25,0],[1,0.5,0],[1,0.75,0]];outlineConnect=0;fontColor=#232F3E;gradientColor=#60A337;gradientDirection=north;fillColor=#277116;strokeColor=#ffffff;dashed=0;verticalLabelPosition=bottom;verticalAlign=top;align=center;html=1;fontSize=12;fontStyle=0;aspect=fixed;shape=mxgraph.aws4.resourceIcon;resIcon=mxgraph.aws4.iot_events;rounded=0;shadow=0;glass=0;" parent="1" vertex="1">
          <mxGeometry x="74.25" y="643.66" width="80" height="80" as="geometry" />
        </mxCell>
        <mxCell id="04ijFvJ8HovLDQiNbfhL-41" style="edgeStyle=orthogonalEdgeStyle;rounded=0;orthogonalLoop=1;jettySize=auto;html=1;exitX=1;exitY=0.5;exitDx=0;exitDy=0;exitPerimeter=0;fontColor=#000000;" parent="1" source="04ijFvJ8HovLDQiNbfhL-39" target="04ijFvJ8HovLDQiNbfhL-22" edge="1">
          <mxGeometry relative="1" as="geometry" />
        </mxCell>
        <mxCell id="04ijFvJ8HovLDQiNbfhL-39" value="Argo Event Source For SQS - Queue 3" style="sketch=0;points=[[0,0,0],[0.25,0,0],[0.5,0,0],[0.75,0,0],[1,0,0],[0,1,0],[0.25,1,0],[0.5,1,0],[0.75,1,0],[1,1,0],[0,0.25,0],[0,0.5,0],[0,0.75,0],[1,0.25,0],[1,0.5,0],[1,0.75,0]];outlineConnect=0;fontColor=#232F3E;gradientColor=#60A337;gradientDirection=north;fillColor=#277116;strokeColor=#ffffff;dashed=0;verticalLabelPosition=bottom;verticalAlign=top;align=center;html=1;fontSize=12;fontStyle=0;aspect=fixed;shape=mxgraph.aws4.resourceIcon;resIcon=mxgraph.aws4.iot_events;rounded=0;shadow=0;glass=0;" parent="1" vertex="1">
          <mxGeometry x="74.25" y="800" width="80" height="80" as="geometry" />
        </mxCell>
      </root>
    </mxGraphModel>
  </diagram>
</mxfile>
